<?xml version="1.0" encoding="utf-8"?>
<!-- Generator: Adobe Illustrator 19.0.0, SVG Export Plug-In . SVG Version: 6.00 Build 0)  -->
<svg version="1.1"
	 id="svg2" xmlns:dc="http://purl.org/dc/elements/1.1/" xmlns:cc="http://creativecommons.org/ns#" xmlns:rdf="http://www.w3.org/1999/02/22-rdf-syntax-ns#" xmlns:svg="http://www.w3.org/2000/svg"
	 xmlns="http://www.w3.org/2000/svg" xmlns:xlink="http://www.w3.org/1999/xlink" x="0px" y="0px" viewBox="-226 317.9 158.2 158.1"
	 style="enable-background:new -226 317.9 158.2 158.1;" xml:space="preserve">
<style type="text/css">
	.st0{display:none;}
</style>
<g id="g10" transform="matrix(1.3333333,0,0,-1.3333333,0,157.16)">
	<g id="g12" transform="scale(0.1)">
		<g id="g14">
			<g>
				<g id="g16">
					<path id="path24" d="M-741.8-2279.1v315.5h105.2v-420.7h-945.9v420.7h105.2v-315.5H-741.8"/>
					<path id="path26" d="M-1372.1-2173.9h525.8v105.2h-525.8L-1372.1-2173.9L-1372.1-2173.9z M-900.8-1205.6l-84.4-62.8
						l313.8-421.9l84.4,62.8L-900.8-1205.6z M-1161.6-1454.4l404-336.5l67.3,80.8l-404,336.5L-1161.6-1454.4z M-1293.5-1688.2
						l476.7-222l44.4,95.3l-476.7,222L-1293.5-1688.2z M-1361.6-1934.6l514.6-108.1l21.6,102.9l-514.6,108.1L-1361.6-1934.6"/>
				</g>
			</g>
		</g>
	</g>
</g>
<rect x="-131.9" y="635.8" class="st0" width="158.1" height="158.1"/>
</svg>
