<?xml version="1.0" encoding="utf-8"?>
<!-- Generator: Adobe Illustrator 19.0.0, SVG Export Plug-In . SVG Version: 6.00 Build 0)  -->
<svg version="1.1" id="Layer_1" xmlns="http://www.w3.org/2000/svg" xmlns:xlink="http://www.w3.org/1999/xlink" x="0px" y="0px"
	 viewBox="0 0 1369.1 932.6" style="enable-background:new 0 0 1369.1 932.6;" xml:space="preserve">
<style type="text/css">
	.st0{fill:none;stroke:#FFFFFF;stroke-width:6.9809;stroke-miterlimit:10;}
	.st1{fill:none;stroke:#FFFFFF;stroke-width:6.9809;stroke-linecap:round;stroke-miterlimit:10;}
	.st2{fill:#FFFFFF;}
</style>
<rect id="XMLID_647_" x="396" y="440.1" class="st0" width="131.3" height="26.3"/>
<line id="XMLID_646_" class="st1" x1="511.2" y1="453.2" x2="511.2" y2="453.2"/>
<line id="XMLID_645_" class="st1" x1="498.1" y1="453.2" x2="498.1" y2="453.2"/>
<rect id="XMLID_643_" x="396" y="398.8" class="st0" width="131.3" height="26.3"/>
<line id="XMLID_642_" class="st1" x1="511.2" y1="411.9" x2="511.2" y2="411.9"/>
<line id="XMLID_641_" class="st1" x1="498.1" y1="411.9" x2="498.1" y2="411.9"/>
<rect id="XMLID_639_" x="396" y="356.8" class="st0" width="131.3" height="26.3"/>
<line id="XMLID_624_" class="st1" x1="511.2" y1="370" x2="511.2" y2="370"/>
<line id="XMLID_619_" class="st1" x1="498.1" y1="370" x2="498.1" y2="370"/>
<rect id="XMLID_617_" x="545" y="440.1" class="st0" width="131.3" height="26.3"/>
<line id="XMLID_615_" class="st1" x1="660.2" y1="453.2" x2="660.2" y2="453.2"/>
<line id="XMLID_614_" class="st1" x1="647.1" y1="453.2" x2="647.1" y2="453.2"/>
<rect id="XMLID_613_" x="545" y="398.8" class="st0" width="131.3" height="26.3"/>
<line id="XMLID_612_" class="st1" x1="660.2" y1="411.9" x2="660.2" y2="411.9"/>
<line id="XMLID_611_" class="st1" x1="647.1" y1="411.9" x2="647.1" y2="411.9"/>
<rect id="XMLID_609_" x="545" y="356.8" class="st0" width="131.3" height="26.3"/>
<line id="XMLID_608_" class="st1" x1="660.2" y1="370" x2="660.2" y2="370"/>
<line id="XMLID_607_" class="st1" x1="647.1" y1="370" x2="647.1" y2="370"/>
<rect id="XMLID_606_" x="694" y="440.1" class="st0" width="131.3" height="26.3"/>
<line id="XMLID_605_" class="st1" x1="809.2" y1="453.2" x2="809.2" y2="453.2"/>
<line id="XMLID_604_" class="st1" x1="796.1" y1="453.2" x2="796.1" y2="453.2"/>
<rect id="XMLID_603_" x="694" y="398.8" class="st0" width="131.3" height="26.3"/>
<line id="XMLID_602_" class="st1" x1="809.2" y1="411.9" x2="809.2" y2="411.9"/>
<line id="XMLID_601_" class="st1" x1="796.1" y1="411.9" x2="796.1" y2="411.9"/>
<rect id="XMLID_600_" x="694" y="356.8" class="st0" width="131.3" height="26.3"/>
<line id="XMLID_599_" class="st1" x1="809.2" y1="370" x2="809.2" y2="370"/>
<line id="XMLID_598_" class="st1" x1="796.1" y1="370" x2="796.1" y2="370"/>
<rect id="XMLID_597_" x="843" y="440.1" class="st0" width="131.3" height="26.3"/>
<line id="XMLID_596_" class="st1" x1="958.2" y1="453.2" x2="958.2" y2="453.2"/>
<line id="XMLID_595_" class="st1" x1="945.1" y1="453.2" x2="945.1" y2="453.2"/>
<rect id="XMLID_594_" x="843" y="398.8" class="st0" width="131.3" height="26.3"/>
<line id="XMLID_593_" class="st1" x1="958.2" y1="411.9" x2="958.2" y2="411.9"/>
<line id="XMLID_592_" class="st1" x1="945.1" y1="411.9" x2="945.1" y2="411.9"/>
<rect id="XMLID_591_" x="843" y="356.8" class="st0" width="131.3" height="26.3"/>
<line id="XMLID_590_" class="st1" x1="958.2" y1="370" x2="958.2" y2="370"/>
<line id="XMLID_589_" class="st1" x1="945.1" y1="370" x2="945.1" y2="370"/>
<g id="XMLID_12_">
	<g id="XMLID_556_">
		<path id="XMLID_586_" class="st2" d="M473.9,553.7c-0.9,0.1-1.7,0.1-2.5-0.3c-1-0.4-1.8-1.1-2.4-2c-1.1-1.5-1.8-3.1-2.3-4.9
			c-0.3-1-0.5-1.9-0.6-2.9c0.4-0.1,0.8-0.2,1.2-0.3c3-1,5.2-2.9,6.4-5.9c1-2.3,1.1-4.8,0.7-7.3c-0.3-1.8-1.1-3.5-2.2-5
			c-1-1.3-2.3-2.3-3.9-3c-1.5-0.7-3.1-0.9-4.7-0.9c-4.9,0-15,0-15,0c0,12.1,0,24.2,0,36.2c1.7,0,3.4,0,5.2,0c0-4.6,0-9.1,0-13.7
			c2.5,0,4.9,0,7.4,0c0,0.1,0,0.2,0.1,0.4c0.2,2.3,0.8,4.5,1.7,6.5c0.8,1.8,1.8,3.5,3.3,4.9c1.4,1.3,3,2.1,4.9,2.4
			c1.6,0.2,3.3,0.1,4.8-0.5c1.1-0.4,2.2-1.1,3-2c-0.6-1.2-1.2-2.3-1.8-3.5C476.3,553,475.2,553.6,473.9,553.7z M462.6,539.8
			c-3.4,0-8.8,0-8.8,0c0-4.7,0-9.4,0-14.1c0.1,0,0.2,0,0.3,0c2.8,0,5.7,0,8.5,0c1.3,0,2.6,0.3,3.7,1c1.4,0.9,2.2,2.1,2.6,3.6
			c0.6,2.2,0.5,4.3-0.5,6.3c-0.8,1.6-2.2,2.6-3.9,3C463.9,539.7,463.3,539.8,462.6,539.8z"/>
		<path id="XMLID_561_" class="st2" d="M472.7,559c-0.5,0-1.1,0-1.6-0.1c-2-0.3-3.8-1.2-5.4-2.6c-1.4-1.3-2.6-3-3.5-5.1
			c-0.9-2-1.5-4.2-1.7-6.4h-5.8v13.7h-6.8v-37.9l0.8,0c0,0,10.1,0,15,0c1.9,0,3.5,0.3,5,1c1.7,0.7,3.1,1.8,4.2,3.3
			c1.2,1.5,2,3.3,2.4,5.3c0.5,2.8,0.3,5.4-0.7,7.8c-1.3,3.2-3.6,5.3-6.9,6.3c-0.2,0.1-0.4,0.1-0.6,0.2c0.1,0.7,0.2,1.3,0.5,2.1
			c0.5,1.9,1.3,3.4,2.2,4.6c0.7,0.8,1.3,1.4,2.1,1.7c0.6,0.3,1.3,0.3,2,0.2c1.1-0.2,2-0.6,2.9-1.4l0.8-0.7l2.6,5l-0.4,0.4
			c-0.9,1-2,1.7-3.3,2.2C475.2,558.8,474,559,472.7,559z M453,543.1h8.9l0.1,0.8c0,0.1,0,0.2,0,0.3c0.2,2.2,0.8,4.3,1.7,6.3
			c0.8,1.9,1.9,3.4,3.1,4.6c1.3,1.2,2.8,1.9,4.5,2.2c1.5,0.2,3,0.1,4.4-0.4c0.9-0.3,1.6-0.8,2.3-1.4l-1.1-2.1
			c-0.9,0.6-1.8,1-2.9,1.1l0,0c-1.1,0.2-2.1,0.1-2.9-0.3c-1-0.4-1.9-1.2-2.7-2.2c-1.1-1.4-1.9-3.1-2.5-5.1c-0.3-1.1-0.5-2.1-0.6-3.1
			l-0.1-0.7l0.7-0.2c0.1,0,0.3-0.1,0.4-0.1c0.3-0.1,0.5-0.1,0.8-0.2c2.8-0.9,4.8-2.7,5.9-5.4c0.9-2.1,1.1-4.4,0.6-6.8
			c-0.3-1.7-1-3.3-2-4.6c-0.9-1.2-2.1-2.1-3.6-2.8c-1.3-0.6-2.7-0.8-4.4-0.8c-4.1,0-11.7,0-14.2,0v34.6h3.5V543.1z M453,540.6v-15.8
			l3.9,0c1.9,0,3.8,0,5.7,0c1.6,0,3,0.4,4.2,1.1c1.5,0.9,2.5,2.3,3,4.1c0.7,2.5,0.5,4.8-0.6,6.9c-0.9,1.8-2.4,3-4.5,3.4
			c-0.7,0.1-1.3,0.2-2,0.2l0,0c-3.4,0-8.8,0-8.8,0L453,540.6z M454.6,526.5v12.5c1.6,0,5.4,0,8,0c0.5,0,1.1-0.1,1.6-0.2
			c1.5-0.4,2.7-1.2,3.4-2.6c0.9-1.7,1.1-3.6,0.5-5.7c-0.4-1.4-1.1-2.4-2.3-3.1c-0.9-0.6-2-0.9-3.3-0.9c-1.9,0-3.8,0-5.7,0
			L454.6,526.5z"/>
	</g>
	<g id="XMLID_24_">
		<path id="XMLID_534_" class="st2" d="M461.6,502.7c-20.8,0-37.6,16.9-37.6,37.6c0,20.8,16.9,37.6,37.6,37.6
			c20.8,0,37.6-16.9,37.6-37.6C499.3,519.6,482.4,502.7,461.6,502.7z M461.6,572.7c-17.8,0-32.4-14.5-32.4-32.4
			c0-17.8,14.5-32.4,32.4-32.4c17.8,0,32.4,14.5,32.4,32.4C494,558.2,479.5,572.7,461.6,572.7z"/>
		<path id="XMLID_25_" class="st2" d="M461.6,578.8c-21.2,0-38.5-17.3-38.5-38.5c0-21.2,17.3-38.5,38.5-38.5s38.5,17.3,38.5,38.5
			C500.1,561.6,482.8,578.8,461.6,578.8z M461.6,503.6c-20.3,0-36.8,16.5-36.8,36.8c0,20.3,16.5,36.8,36.8,36.8s36.8-16.5,36.8-36.8
			C498.4,520.1,481.9,503.6,461.6,503.6z M461.6,573.6c-18.3,0-33.2-14.9-33.2-33.2c0-18.3,14.9-33.2,33.2-33.2
			c18.3,0,33.2,14.9,33.2,33.2C494.8,558.7,479.9,573.6,461.6,573.6z M461.6,508.8c-17.4,0-31.5,14.1-31.5,31.5
			c0,17.4,14.1,31.5,31.5,31.5c17.4,0,31.5-14.1,31.5-31.5C493.2,523,479,508.8,461.6,508.8z"/>
	</g>
</g>
<line id="XMLID_10_" class="st0" x1="461.6" y1="466.4" x2="461.6" y2="502.1"/>
<line id="XMLID_9_" class="st0" x1="610.6" y1="466.4" x2="610.6" y2="486.6"/>
<line id="XMLID_8_" class="st0" x1="759.7" y1="466.4" x2="759.7" y2="486.6"/>
<polyline id="XMLID_7_" class="st0" points="908.7,466.4 908.7,486.6 461.6,486.6 "/>
</svg>
