<?xml version="1.0" encoding="utf-8"?>
<!-- Generator: Adobe Illustrator 19.0.0, SVG Export Plug-In . SVG Version: 6.00 Build 0)  -->
<svg version="1.1" id="Layer_1" xmlns="http://www.w3.org/2000/svg" xmlns:xlink="http://www.w3.org/1999/xlink" x="0px" y="0px"
	 viewBox="771.5 282.7 585.3 225.5" style="enable-background:new 771.5 282.7 585.3 225.5;" xml:space="preserve">
<style type="text/css">
	.st0{fill:none;stroke:#FFFFFF;stroke-width:6.9809;stroke-miterlimit:10;}
	.st1{fill:none;stroke:#FFFFFF;stroke-width:6.9809;stroke-linecap:round;stroke-miterlimit:10;}
	.st2{fill:#FFFFFF;}
</style>
<rect id="XMLID_647_" x="775" y="369.5" class="st0" width="131.3" height="26.3"/>
<line id="XMLID_646_" class="st1" x1="890.2" y1="382.6" x2="890.2" y2="382.6"/>
<line id="XMLID_645_" class="st1" x1="877.1" y1="382.6" x2="877.1" y2="382.6"/>
<rect id="XMLID_643_" x="775" y="328.2" class="st0" width="131.3" height="26.3"/>
<line id="XMLID_642_" class="st1" x1="890.2" y1="341.3" x2="890.2" y2="341.3"/>
<line id="XMLID_641_" class="st1" x1="877.1" y1="341.3" x2="877.1" y2="341.3"/>
<rect id="XMLID_639_" x="775" y="286.2" class="st0" width="131.3" height="26.3"/>
<line id="XMLID_624_" class="st1" x1="890.2" y1="299.4" x2="890.2" y2="299.4"/>
<line id="XMLID_619_" class="st1" x1="877.1" y1="299.4" x2="877.1" y2="299.4"/>
<rect id="XMLID_617_" x="924" y="369.5" class="st0" width="131.3" height="26.3"/>
<line id="XMLID_615_" class="st1" x1="1039.2" y1="382.6" x2="1039.2" y2="382.6"/>
<line id="XMLID_614_" class="st1" x1="1026.1" y1="382.6" x2="1026.1" y2="382.6"/>
<rect id="XMLID_613_" x="924" y="328.2" class="st0" width="131.3" height="26.3"/>
<line id="XMLID_612_" class="st1" x1="1039.2" y1="341.3" x2="1039.2" y2="341.3"/>
<line id="XMLID_611_" class="st1" x1="1026.1" y1="341.3" x2="1026.1" y2="341.3"/>
<rect id="XMLID_609_" x="924" y="286.2" class="st0" width="131.3" height="26.3"/>
<line id="XMLID_608_" class="st1" x1="1039.2" y1="299.4" x2="1039.2" y2="299.4"/>
<line id="XMLID_607_" class="st1" x1="1026.1" y1="299.4" x2="1026.1" y2="299.4"/>
<rect id="XMLID_606_" x="1073" y="369.5" class="st0" width="131.3" height="26.3"/>
<line id="XMLID_605_" class="st1" x1="1188.2" y1="382.6" x2="1188.2" y2="382.6"/>
<line id="XMLID_604_" class="st1" x1="1175.1" y1="382.6" x2="1175.1" y2="382.6"/>
<rect id="XMLID_603_" x="1073" y="328.2" class="st0" width="131.3" height="26.3"/>
<line id="XMLID_602_" class="st1" x1="1188.2" y1="341.3" x2="1188.2" y2="341.3"/>
<line id="XMLID_601_" class="st1" x1="1175.1" y1="341.3" x2="1175.1" y2="341.3"/>
<rect id="XMLID_600_" x="1073" y="286.2" class="st0" width="131.3" height="26.3"/>
<line id="XMLID_599_" class="st1" x1="1188.2" y1="299.4" x2="1188.2" y2="299.4"/>
<line id="XMLID_598_" class="st1" x1="1175.1" y1="299.4" x2="1175.1" y2="299.4"/>
<rect id="XMLID_597_" x="1222" y="369.5" class="st0" width="131.3" height="26.3"/>
<line id="XMLID_596_" class="st1" x1="1337.2" y1="382.6" x2="1337.2" y2="382.6"/>
<line id="XMLID_595_" class="st1" x1="1324.1" y1="382.6" x2="1324.1" y2="382.6"/>
<rect id="XMLID_594_" x="1222" y="328.2" class="st0" width="131.3" height="26.3"/>
<line id="XMLID_593_" class="st1" x1="1337.2" y1="341.3" x2="1337.2" y2="341.3"/>
<line id="XMLID_592_" class="st1" x1="1324.1" y1="341.3" x2="1324.1" y2="341.3"/>
<rect id="XMLID_591_" x="1222" y="286.2" class="st0" width="131.3" height="26.3"/>
<line id="XMLID_590_" class="st1" x1="1337.2" y1="299.4" x2="1337.2" y2="299.4"/>
<line id="XMLID_589_" class="st1" x1="1324.1" y1="299.4" x2="1324.1" y2="299.4"/>
<g id="XMLID_12_">
	<g id="XMLID_556_">
		<path id="XMLID_586_" class="st2" d="M852.9,483.1c-0.9,0.1-1.7,0.1-2.5-0.3c-1-0.4-1.8-1.1-2.4-2c-1.1-1.5-1.8-3.1-2.3-4.9
			c-0.3-1-0.5-1.9-0.6-2.9c0.4-0.1,0.8-0.2,1.2-0.3c3-1,5.2-2.9,6.4-5.9c1-2.3,1.1-4.8,0.7-7.3c-0.3-1.8-1.1-3.5-2.2-5
			c-1-1.3-2.3-2.3-3.9-3c-1.5-0.7-3.1-0.9-4.7-0.9c-4.9,0-15,0-15,0c0,12.1,0,24.2,0,36.2c1.7,0,3.4,0,5.2,0c0-4.6,0-9.1,0-13.7
			c2.5,0,4.9,0,7.4,0c0,0.1,0,0.2,0.1,0.4c0.2,2.3,0.8,4.5,1.7,6.5c0.8,1.8,1.8,3.5,3.3,4.9c1.4,1.3,3,2.1,4.9,2.4
			c1.6,0.2,3.3,0.1,4.8-0.5c1.1-0.4,2.2-1.1,3-2c-0.6-1.2-1.2-2.3-1.8-3.5C855.3,482.4,854.2,483,852.9,483.1z M841.6,469.2
			c-3.4,0-8.8,0-8.8,0c0-4.7,0-9.4,0-14.1c0.1,0,0.2,0,0.3,0c2.8,0,5.7,0,8.5,0c1.3,0,2.6,0.3,3.7,1c1.4,0.9,2.2,2.1,2.6,3.6
			c0.6,2.2,0.5,4.3-0.5,6.3c-0.8,1.6-2.2,2.6-3.9,3C842.9,469.1,842.3,469.2,841.6,469.2z"/>
		<path id="XMLID_561_" class="st2" d="M851.7,488.4c-0.5,0-1.1,0-1.6-0.1c-2-0.3-3.8-1.2-5.4-2.6c-1.4-1.3-2.6-3-3.5-5.1
			c-0.9-2-1.5-4.2-1.7-6.4h-5.8v13.7h-6.8V450h0.8c0,0,10.1,0,15,0c1.9,0,3.5,0.3,5,1c1.7,0.7,3.1,1.8,4.2,3.3
			c1.2,1.5,2,3.3,2.4,5.3c0.5,2.8,0.3,5.4-0.7,7.8c-1.3,3.2-3.6,5.3-6.9,6.3c-0.2,0.1-0.4,0.1-0.6,0.2c0.1,0.7,0.2,1.3,0.5,2.1
			c0.5,1.9,1.3,3.4,2.2,4.6c0.7,0.8,1.3,1.4,2.1,1.7c0.6,0.3,1.3,0.3,2,0.2c1.1-0.2,2-0.6,2.9-1.4l0.8-0.7l2.6,5l-0.4,0.4
			c-0.9,1-2,1.7-3.3,2.2C854.2,488.2,853,488.4,851.7,488.4z M832,472.5h8.9l0.1,0.8c0,0.1,0,0.2,0,0.3c0.2,2.2,0.8,4.3,1.7,6.3
			c0.8,1.9,1.9,3.4,3.1,4.6c1.3,1.2,2.8,1.9,4.5,2.2c1.5,0.2,3,0.1,4.4-0.4c0.9-0.3,1.6-0.8,2.3-1.4l-1.1-2.1
			c-0.9,0.6-1.8,1-2.9,1.1l0,0c-1.1,0.2-2.1,0.1-2.9-0.3c-1-0.4-1.9-1.2-2.7-2.2c-1.1-1.4-1.9-3.1-2.5-5.1c-0.3-1.1-0.5-2.1-0.6-3.1
			l-0.1-0.7l0.7-0.2c0.1,0,0.3-0.1,0.4-0.1c0.3-0.1,0.5-0.1,0.8-0.2c2.8-0.9,4.8-2.7,5.9-5.4c0.9-2.1,1.1-4.4,0.6-6.8
			c-0.3-1.7-1-3.3-2-4.6c-0.9-1.2-2.1-2.1-3.6-2.8c-1.3-0.6-2.7-0.8-4.4-0.8c-4.1,0-11.7,0-14.2,0v34.6h3.5v-13.7H832z M832,470
			v-15.8h3.9c1.9,0,3.8,0,5.7,0c1.6,0,3,0.4,4.2,1.1c1.5,0.9,2.5,2.3,3,4.1c0.7,2.5,0.5,4.8-0.6,6.9c-0.9,1.8-2.4,3-4.5,3.4
			c-0.7,0.1-1.3,0.2-2,0.2l0,0c-3.4,0-8.8,0-8.8,0L832,470z M833.6,455.9v12.5c1.6,0,5.4,0,8,0c0.5,0,1.1-0.1,1.6-0.2
			c1.5-0.4,2.7-1.2,3.4-2.6c0.9-1.7,1.1-3.6,0.5-5.7c-0.4-1.4-1.1-2.4-2.3-3.1c-0.9-0.6-2-0.9-3.3-0.9c-1.9,0-3.8,0-5.7,0H833.6z"/>
	</g>
	<g id="XMLID_24_">
		<path id="XMLID_534_" class="st2" d="M840.6,432.1c-20.8,0-37.6,16.9-37.6,37.6c0,20.8,16.9,37.6,37.6,37.6
			c20.8,0,37.6-16.9,37.6-37.6C878.3,449,861.4,432.1,840.6,432.1z M840.6,502.1c-17.8,0-32.4-14.5-32.4-32.4
			c0-17.8,14.5-32.4,32.4-32.4c17.8,0,32.4,14.5,32.4,32.4C873,487.6,858.5,502.1,840.6,502.1z"/>
		<path id="XMLID_25_" class="st2" d="M840.6,508.2c-21.2,0-38.5-17.3-38.5-38.5s17.3-38.5,38.5-38.5s38.5,17.3,38.5,38.5
			C879.1,491,861.8,508.2,840.6,508.2z M840.6,433c-20.3,0-36.8,16.5-36.8,36.8c0,20.3,16.5,36.8,36.8,36.8s36.8-16.5,36.8-36.8
			C877.4,449.5,860.9,433,840.6,433z M840.6,503c-18.3,0-33.2-14.9-33.2-33.2s14.9-33.2,33.2-33.2s33.2,14.9,33.2,33.2
			C873.8,488.1,858.9,503,840.6,503z M840.6,438.2c-17.4,0-31.5,14.1-31.5,31.5s14.1,31.5,31.5,31.5c17.4,0,31.5-14.1,31.5-31.5
			C872.2,452.4,858,438.2,840.6,438.2z"/>
	</g>
</g>
<line id="XMLID_10_" class="st0" x1="840.6" y1="395.8" x2="840.6" y2="431.5"/>
<line id="XMLID_9_" class="st0" x1="989.6" y1="395.8" x2="989.6" y2="416"/>
<line id="XMLID_8_" class="st0" x1="1138.7" y1="395.8" x2="1138.7" y2="416"/>
<polyline id="XMLID_7_" class="st0" points="1287.7,395.8 1287.7,416 840.6,416 "/>
</svg>
