<?xml version="1.0" encoding="utf-8"?>
<!-- Generator: Adobe Illustrator 19.0.0, SVG Export Plug-In . SVG Version: 6.00 Build 0)  -->
<svg version="1.1" id="Layer_1" xmlns="http://www.w3.org/2000/svg" xmlns:xlink="http://www.w3.org/1999/xlink" x="0px" y="0px"
	 viewBox="788 229.8 593.6 321.4" style="enable-background:new 788 229.8 593.6 321.4;" xml:space="preserve">
<style type="text/css">
	.st0{fill:#FFFFFF;}
</style>
<g id="XMLID_780_">
	<g id="XMLID_786_">
		<g id="XMLID_790_">
			<g id="XMLID_21_">
				<path id="XMLID_18_" class="st0" d="M1221.2,434.1c-24.1,0-43.7-19.6-43.7-43.7s19.6-43.7,43.7-43.7c24.1,0,43.7,19.6,43.7,43.7
					S1245.3,434.1,1221.2,434.1z M1221.2,352.5c-20.9,0-37.9,17-37.9,37.9s17,37.9,37.9,37.9c20.9,0,37.9-17,37.9-37.9
					S1242.1,352.5,1221.2,352.5z"/>
			</g>
			<g id="XMLID_16_">
				<path id="XMLID_13_" class="st0" d="M1221.2,434.1c-24.1,0-43.7-19.6-43.7-43.7s19.6-43.7,43.7-43.7c24.1,0,43.7,19.6,43.7,43.7
					S1245.3,434.1,1221.2,434.1z M1221.2,352.5c-20.9,0-37.9,17-37.9,37.9s17,37.9,37.9,37.9c20.9,0,37.9-17,37.9-37.9
					S1242.1,352.5,1221.2,352.5z"/>
			</g>
		</g>
		<g id="XMLID_787_">
			<g id="XMLID_11_">
				<path id="XMLID_8_" class="st0" d="M1221.2,434.1c-24.1,0-43.7-19.6-43.7-43.7s19.6-43.7,43.7-43.7c24.1,0,43.7,19.6,43.7,43.7
					S1245.3,434.1,1221.2,434.1z M1221.2,352.5c-20.9,0-37.9,17-37.9,37.9s17,37.9,37.9,37.9c20.9,0,37.9-17,37.9-37.9
					S1242.1,352.5,1221.2,352.5z"/>
			</g>
			<g id="XMLID_6_">
				<path id="XMLID_3_" class="st0" d="M1221.2,434.1c-24.1,0-43.7-19.6-43.7-43.7s19.6-43.7,43.7-43.7c24.1,0,43.7,19.6,43.7,43.7
					S1245.3,434.1,1221.2,434.1z M1221.2,352.5c-20.9,0-37.9,17-37.9,37.9s17,37.9,37.9,37.9c20.9,0,37.9-17,37.9-37.9
					S1242.1,352.5,1221.2,352.5z"/>
			</g>
		</g>
	</g>
	<g id="XMLID_941_">
		<g id="XMLID_945_">
			<path id="XMLID_146_" class="st0" d="M1067,483c-0.6,0-1.1,0-1.7-0.1c-13.4-0.9-23.5-12.6-22.6-26l0,0
				c0.9-13.4,12.6-23.6,26-22.6c6.5,0.4,12.4,3.4,16.7,8.3s6.4,11.2,5.9,17.7C1090.4,473.1,1079.7,483,1067,483z M1049.7,457.4
				c-0.7,9.5,6.6,17.8,16.1,18.5c9.6,0.7,17.8-6.6,18.5-16.1c0.3-4.6-1.2-9.1-4.2-12.6s-7.3-5.6-11.9-5.9
				C1058.7,440.7,1050.4,447.9,1049.7,457.4L1049.7,457.4z"/>
		</g>
		<g id="XMLID_942_">
			<path id="XMLID_141_" class="st0" d="M1067,483c-0.6,0-1.1,0-1.7-0.1c-13.4-0.9-23.5-12.6-22.6-26l0,0
				c0.9-13.4,12.6-23.6,26-22.6c6.5,0.4,12.4,3.4,16.7,8.3s6.4,11.2,5.9,17.7C1090.4,473.1,1079.7,483,1067,483z M1049.7,457.4
				c-0.7,9.5,6.6,17.8,16.1,18.5c9.6,0.7,17.8-6.6,18.5-16.1c0.3-4.6-1.2-9.1-4.2-12.6s-7.3-5.6-11.9-5.9
				C1058.7,440.7,1050.4,447.9,1049.7,457.4L1049.7,457.4z"/>
			<path id="XMLID_140_" class="st0" d="M1067,483c-0.6,0-1.1,0-1.7-0.1c-8.8-0.6-16.7-6-20.4-14l6.4-3c2.7,5.7,8.2,9.6,14.5,10
				c9.6,0.7,17.8-6.6,18.5-16.1c0-0.4,0-0.8,0-1.2c0-9.1-7.1-16.6-16.1-17.3c-9.6-0.7-17.8,6.6-18.5,16.1l-7-0.5
				c0.9-13.3,12.5-23.6,26-22.6c12.7,0.9,22.7,11.5,22.7,24.3c0,0.6,0,1.1-0.1,1.7C1090.4,473,1079.8,483,1067,483z"/>
		</g>
	</g>
	<g id="XMLID_935_">
		<path id="XMLID_69_" class="st0" d="M1017.1,484.2c-13.4,0-24.4,10.9-24.4,24.4s10.9,24.4,24.4,24.4s24.4-10.9,24.4-24.4
			S1030.5,484.2,1017.1,484.2z M1017.1,529.4c-11.5,0-20.8-9.3-20.8-20.8s9.3-20.8,20.8-20.8s20.8,9.3,20.8,20.8
			C1037.9,520.1,1028.6,529.4,1017.1,529.4z"/>
		<path id="XMLID_136_" class="st0" d="M1017.1,532.9c-13.4,0-24.4-10.9-24.4-24.4c0-10,6.3-19.1,15.6-22.7l2.5,6.5
			c-6.7,2.6-11.1,9.1-11.1,16.2c0,9.6,7.8,17.3,17.3,17.3c9.5,0,17.3-7.8,17.3-17.3h7C1041.4,522,1030.5,532.9,1017.1,532.9z"/>
	</g>
	<g id="XMLID_928_">
		<path id="XMLID_139_" class="st0" d="M880.6,484.2c-13.4,0-24.4,10.9-24.4,24.4s10.9,24.4,24.4,24.4s24.4-10.9,24.4-24.4
			S894,484.2,880.6,484.2z M880.6,529.4c-11.5,0-20.8-9.3-20.8-20.8s9.3-20.8,20.8-20.8s20.8,9.3,20.8,20.8
			C901.5,520.1,892.1,529.4,880.6,529.4z"/>
		<path id="XMLID_132_" class="st0" d="M880.6,532.9c-13.4,0-24.4-10.9-24.4-24.4c0-10,6.3-19.1,15.6-22.7l2.5,6.5
			c-6.7,2.6-11.1,9.1-11.1,16.2c0,9.6,7.8,17.3,17.3,17.3s17.3-7.8,17.3-17.3h7C905,522,894,532.9,880.6,532.9z"/>
	</g>
	<g id="XMLID_921_">
		<path id="XMLID_137_" class="st0" d="M842.4,437.3c-11.8-6.5-26.6-2.2-33.1,9.6c-6.5,11.8-2.2,26.6,9.6,33.1c3.7,2,7.7,3,11.7,3
			c8.6,0,16.9-4.6,21.4-12.6C858.5,458.6,854.2,443.8,842.4,437.3z M848.9,468.7c-5.6,10.1-18.2,13.8-28.3,8.2s-13.8-18.2-8.2-28.3
			s18.2-13.8,28.3-8.2C850.8,445.9,854.5,458.6,848.9,468.7z"/>
		<path id="XMLID_128_" class="st0" d="M830.7,483c-1.1,0-2.2-0.1-3.3-0.2l1-7c0.8,0.1,1.6,0.2,2.4,0.2c6.3,0,12.2-3.4,15.2-9
			c1.4-2.6,2.2-5.4,2.2-8.4c0-6.3-3.4-12.2-9-15.2c-2.6-1.4-5.4-2.2-8.4-2.2c-6.3,0-12.2,3.4-15.2,9l-6.1-3.4
			c4.3-7.8,12.5-12.6,21.4-12.6c4.1,0,8.1,1,11.7,3c7.8,4.3,12.6,12.5,12.6,21.4c0,4.1-1,8.1-3,11.7
			C847.7,478.2,839.5,483,830.7,483z"/>
	</g>
	<g id="XMLID_914_">
		<path id="XMLID_134_" class="st0" d="M812.4,366.1c-13.4,0-24.4,10.9-24.4,24.4s10.9,24.4,24.4,24.4s24.4-10.9,24.4-24.4
			S825.8,366.1,812.4,366.1z M812.4,411.3c-11.5,0-20.8-9.3-20.8-20.8s9.3-20.8,20.8-20.8s20.8,9.3,20.8,20.8
			C833.2,401.9,823.9,411.3,812.4,411.3z"/>
		<path id="XMLID_124_" class="st0" d="M812.4,414.8c-13.4,0-24.4-10.9-24.4-24.4c0-10,6.3-19.1,15.6-22.7l2.5,6.5
			c-6.7,2.6-11.1,9.1-11.1,16.2c0,9.6,7.8,17.3,17.3,17.3s17.3-7.8,17.3-17.3h7C836.7,403.8,825.8,414.8,812.4,414.8z"/>
	</g>
	<g id="XMLID_906_">
		<g id="XMLID_910_">
			<path id="XMLID_121_" class="st0" d="M1084.8,414.8c-13.4,0-24.4-10.9-24.4-24.4s10.9-24.4,24.4-24.4s24.4,10.9,24.4,24.4
				S1098.2,414.8,1084.8,414.8z M1084.8,373.1c-9.6,0-17.3,7.8-17.3,17.3s7.8,17.3,17.3,17.3s17.3-7.8,17.3-17.3
				S1094.3,373.1,1084.8,373.1z"/>
		</g>
		<g id="XMLID_907_">
			<path id="XMLID_120_" class="st0" d="M1084.8,414.8c-13.4,0-24.4-10.9-24.4-24.4c0-10,6.3-19.1,15.6-22.7l2.5,6.5
				c-6.6,2.6-11.1,9.1-11.1,16.2c0,9.6,7.8,17.3,17.3,17.3s17.3-7.8,17.3-17.3h7C1109.1,403.8,1098.2,414.8,1084.8,414.8z"/>
		</g>
	</g>
	<g id="XMLID_899_">
		<g id="XMLID_903_">
			<path id="XMLID_117_" class="st0" d="M948.8,551.2c-11.6,0-21.9-8.3-24-20.1l0,0c-1.1-6.4,0.3-12.9,4-18.2s9.3-8.9,15.7-10
				s12.9,0.3,18.2,4s8.9,9.3,10,15.7c2.3,13.2-6.5,25.9-19.7,28.2C951.7,551.1,950.2,551.2,948.8,551.2z M931.8,529.9
				c1.7,9.4,10.7,15.7,20.1,14c9.4-1.7,15.7-10.7,14-20.1c-0.8-4.6-3.3-8.5-7.1-11.2s-8.4-3.7-13-2.9s-8.5,3.3-11.2,7.1
				C932,520.8,931,525.4,931.8,529.9L931.8,529.9z"/>
		</g>
		<g id="XMLID_900_">
			<path id="XMLID_112_" class="st0" d="M948.8,551.2c-12.1,0-22.7-9.1-24.2-21.4c-0.8-6.5,1-12.8,5-18c4-5.1,9.8-8.4,16.2-9.1
				c13.3-1.6,25.5,7.9,27.1,21.3c0.8,6.5-1,12.8-5,18c-4,5.1-9.8,8.4-16.2,9.1C950.8,551.2,949.8,551.2,948.8,551.2z M948.8,509.5
				c-0.7,0-1.4,0-2.1,0.1l0,0c-4.6,0.6-8.7,2.9-11.5,6.5c-2.9,3.6-4.1,8.2-3.6,12.8c1.2,9.5,9.8,16.3,19.3,15.1
				c4.6-0.6,8.7-2.9,11.5-6.5c2.9-3.6,4.1-8.2,3.6-12.8C965,516,957.5,509.5,948.8,509.5z"/>
			<path id="XMLID_111_" class="st0" d="M961.4,547.8l-3.6-6c5.2-3.1,8.4-8.8,8.4-14.8c0-1-0.1-2-0.3-3.1c-1.5-8.3-8.6-14.3-17-14.3
				c-1,0-2,0.1-3.1,0.3c-8.3,1.5-14.3,8.6-14.3,17c0,1,0.1,2,0.3,3.1l-6.9,1.2c-0.3-1.4-0.4-2.9-0.4-4.3c0-11.8,8.5-21.9,20.1-24
				c1.4-0.3,2.9-0.4,4.3-0.4c11.8,0,21.9,8.5,24,20.1c0.3,1.4,0.4,2.9,0.4,4.3C973.2,535.4,968.7,543.4,961.4,547.8z"/>
		</g>
	</g>
	<g id="XMLID_819_">
		<g id="XMLID_81_">
			<path id="XMLID_82_" class="st0" d="M1170,260.4c1.4,1.9,2.4,4,3.1,6.3c8.9-3.5,18.3-6,28-7.5c-0.6-2.2-0.7-4.6-0.5-7
				C1189.9,253.8,1179.7,256.6,1170,260.4z"/>
			<path id="XMLID_84_" class="st0" d="M1272.5,260.4c-9.7-3.8-19.9-6.6-30.5-8.2c0.1,1.5,0.1,3-0.1,4.5c-0.1,0.9-0.3,1.7-0.5,2.5
				c9.7,1.5,19.1,4,28,7.5C1270.1,264.4,1271.1,262.3,1272.5,260.4z"/>
			<path id="XMLID_85_" class="st0" d="M1345.1,342.5c3.5,8.9,6,18.2,7.5,27.8c1.5-0.3,3-0.5,4.5-0.5c0.8,0,1.7,0.1,2.5,0.2
				c-1.6-10.6-4.4-20.9-8.2-30.6C1349.6,340.8,1347.4,341.8,1345.1,342.5z"/>
			<path id="XMLID_86_" class="st0" d="M1082.8,369.9c0.6-0.1,1.3-0.1,2-0.1c1.7,0,3.4,0.2,5,0.6c1.5-9.7,4-19.1,7.5-28
				c-2.3-0.6-4.4-1.7-6.3-3.1C1087.2,349.1,1084.4,359.3,1082.8,369.9z"/>
			<path id="XMLID_87_" class="st0" d="M1330.7,303.5c-6.6-8.2-14.1-15.7-22.3-22.3c-1,2.2-2.3,4.1-4,5.8
				c7.5,6.1,14.4,12.9,20.5,20.5C1326.5,305.9,1328.5,304.5,1330.7,303.5z"/>
			<path id="XMLID_88_" class="st0" d="M1134.1,281.2c-8.2,6.6-15.7,14.1-22.3,22.3c2.1,1,4.1,2.3,5.8,4
				c6.1-7.5,12.9-14.4,20.5-20.5C1136.4,285.3,1135.1,283.4,1134.1,281.2z"/>
		</g>
		<g id="XMLID_862_">
			<g id="XMLID_866_">
				<path id="XMLID_78_" class="st0" d="M1339.4,346.8c-12.7,0-23.4-9.8-24.3-22.7l0,0c-0.5-6.5,1.7-12.8,5.9-17.7
					c4.3-4.9,10.2-7.9,16.7-8.3c13.4-0.9,25.1,9.2,26,22.6c0.5,6.5-1.7,12.8-5.9,17.7s-10.2,7.9-16.7,8.3
					C1340.5,346.8,1339.9,346.8,1339.4,346.8z M1339.4,305.1c-0.4,0-0.8,0-1.2,0c-4.6,0.3-8.8,2.4-11.9,5.9c-3,3.5-4.5,8-4.2,12.6
					l0,0c0.7,9.5,9,16.8,18.5,16.1c4.6-0.3,8.8-2.4,11.9-5.9s4.5-8,4.2-12.6C1356.1,312.1,1348.4,305.1,1339.4,305.1z"/>
			</g>
			<g id="XMLID_863_">
				<path id="XMLID_73_" class="st0" d="M1339.4,346.8c-12.7,0-23.4-9.8-24.3-22.7l0,0c-0.5-6.5,1.7-12.8,5.9-17.7
					c4.3-4.9,10.2-7.9,16.7-8.3c13.4-0.9,25.1,9.2,26,22.6c0.5,6.5-1.7,12.8-5.9,17.7s-10.2,7.9-16.7,8.3
					C1340.5,346.8,1339.9,346.8,1339.4,346.8z M1339.4,305.1c-0.4,0-0.8,0-1.2,0c-4.6,0.3-8.8,2.4-11.9,5.9c-3,3.5-4.5,8-4.2,12.6
					l0,0c0.7,9.5,9,16.8,18.5,16.1c4.6-0.3,8.8-2.4,11.9-5.9s4.5-8,4.2-12.6C1356.1,312.1,1348.4,305.1,1339.4,305.1z"/>
				<path id="XMLID_72_" class="st0" d="M1339.4,346.8c-12.7,0-23.4-10-24.3-22.7l7-0.5c0.7,9.5,8.9,16.8,18.5,16.1
					c9.1-0.6,16.1-8.2,16.1-17.3c0-0.4,0-0.8,0-1.2c-0.7-9.4-8.9-16.8-18.5-16.1c-6.3,0.4-11.9,4.3-14.5,10l-6.4-3
					c3.7-8,11.6-13.4,20.4-14c0.6,0,1.1-0.1,1.7-0.1c12.7,0,23.4,10,24.3,22.7c0,0.6,0.1,1.1,0.1,1.7c0,12.7-10,23.4-22.7,24.3
					C1340.5,346.8,1339.9,346.8,1339.4,346.8z"/>
			</g>
		</g>
		<g id="XMLID_856_">
			<path id="XMLID_183_" class="st0" d="M1289.5,248.1c-13.4,0-24.4,10.9-24.4,24.4s10.9,24.4,24.4,24.4s24.4-10.9,24.4-24.4
				S1302.9,248.1,1289.5,248.1z M1289.5,293.3c-11.5,0-20.8-9.3-20.8-20.8s9.3-20.8,20.8-20.8s20.8,9.3,20.8,20.8
				S1301,293.3,1289.5,293.3z"/>
			<path id="XMLID_68_" class="st0" d="M1280.7,295.2c-9.3-3.6-15.6-12.7-15.6-22.7c0-13.4,10.9-24.4,24.4-24.4s24.4,10.9,24.4,24.4
				h-7c0-9.6-7.8-17.3-17.3-17.3s-17.3,7.8-17.3,17.3c0,7.1,4.5,13.6,11.1,16.2L1280.7,295.2z"/>
		</g>
		<g id="XMLID_849_">
			<path id="XMLID_182_" class="st0" d="M1153,248.1c-13.4,0-24.4,10.9-24.4,24.4s10.9,24.4,24.4,24.4s24.4-10.9,24.4-24.4
				S1166.4,248.1,1153,248.1z M1153,293.3c-11.5,0-20.8-9.3-20.8-20.8s9.3-20.8,20.8-20.8s20.8,9.3,20.8,20.8
				S1164.5,293.3,1153,293.3z"/>
			<path id="XMLID_64_" class="st0" d="M1144.3,295.2c-9.3-3.6-15.6-12.7-15.6-22.7c0-13.4,10.9-24.4,24.4-24.4s24.4,10.9,24.4,24.4
				h-7c0-9.6-7.8-17.3-17.3-17.3s-17.3,7.8-17.3,17.3c0,7.1,4.5,13.6,11.1,16.2L1144.3,295.2z"/>
		</g>
		<g id="XMLID_842_">
			<path id="XMLID_180_" class="st0" d="M1124.4,310.7c-3.1-5.7-8.3-9.8-14.6-11.6c-6.2-1.8-12.8-1.1-18.5,2.1
				c-5.7,3.1-9.8,8.3-11.6,14.6c-1.8,6.2-1.1,12.8,2.1,18.5c4.4,8,12.8,12.6,21.4,12.6c4,0,8-1,11.7-3c5.7-3.1,9.8-8.3,11.6-14.6
				C1128.3,322.9,1127.5,316.4,1124.4,310.7z M1113.1,340.7c-10.1,5.6-22.8,1.9-28.3-8.2c-5.6-10.1-1.9-22.8,8.2-28.3
				c10.1-5.6,22.8-1.9,28.3,8.2C1126.9,322.4,1123.2,335.1,1113.1,340.7z"/>
			<path id="XMLID_60_" class="st0" d="M1103.1,346.8c-8.9,0-17.1-4.8-21.4-12.6l6.1-3.4c3,5.5,8.9,9,15.2,9c2.9,0,5.8-0.7,8.3-2.2
				c5.5-3.1,9-8.9,9-15.2c0-2.9-0.7-5.8-2.2-8.4c-3.1-5.5-8.9-9-15.2-9c-0.8,0-1.6,0.1-2.4,0.2l-1-7c1.1-0.2,2.2-0.2,3.3-0.2
				c8.9,0,17.1,4.8,21.4,12.6c2,3.6,3,7.7,3,11.7c0,8.9-4.8,17.1-12.6,21.3C1111.2,345.7,1107.2,346.8,1103.1,346.8z"/>
		</g>
		<g id="XMLID_834_">
			<g id="XMLID_838_">
				<path id="XMLID_57_" class="st0" d="M1084.8,415c-13.4,0-24.4-10.9-24.4-24.4s10.9-24.4,24.4-24.4s24.4,10.9,24.4,24.4
					S1098.2,415,1084.8,415z M1084.8,373.3c-9.6,0-17.3,7.8-17.3,17.3s7.8,17.3,17.3,17.3s17.3-7.8,17.3-17.3
					S1094.3,373.3,1084.8,373.3z"/>
			</g>
			<path id="XMLID_56_" class="st0" d="M1076,413.4c-9.3-3.6-15.6-12.7-15.6-22.7c0-13.4,10.9-24.4,24.4-24.4s24.4,10.9,24.4,24.4
				h-7c0-9.6-7.8-17.3-17.3-17.3s-17.3,7.8-17.3,17.3c0,7.1,4.5,13.6,11.1,16.2L1076,413.4z"/>
		</g>
		<g id="XMLID_828_">
			<path id="XMLID_71_" class="st0" d="M1357.2,366.3c-13.4,0-24.4,10.9-24.4,24.4s10.9,24.4,24.4,24.4s24.4-10.9,24.4-24.4
				S1370.6,366.3,1357.2,366.3z M1357.2,411.5c-11.5,0-20.8-9.3-20.8-20.8s9.3-20.8,20.8-20.8s20.8,9.3,20.8,20.8
				S1368.7,411.5,1357.2,411.5z"/>
			<path id="XMLID_52_" class="st0" d="M1348.4,413.4c-9.3-3.6-15.6-12.7-15.6-22.7c0-13.4,10.9-24.4,24.4-24.4s24.4,10.9,24.4,24.4
				h-7c0-9.6-7.8-17.3-17.3-17.3s-17.3,7.8-17.3,17.3c0,7.1,4.5,13.6,11.1,16.2L1348.4,413.4z"/>
		</g>
		<g id="XMLID_820_">
			<g id="XMLID_824_">
				<path id="XMLID_49_" class="st0" d="M1221.3,278.5c-1.4,0-2.9-0.1-4.3-0.4c-13.2-2.3-22.1-15-19.7-28.2l0,0
					c2.3-13.2,15-22.1,28.2-19.7c13.2,2.3,22.1,15,19.7,28.2c-1.1,6.4-4.7,12-10,15.7C1231,277,1226.2,278.5,1221.3,278.5z
					 M1204.2,251.1c-1.7,9.4,4.6,18.4,14,20.1c4.6,0.8,9.2-0.2,13-2.9c3.8-2.7,6.3-6.6,7.1-11.2c1.7-9.4-4.6-18.4-14-20.1
					C1214.8,235.4,1205.8,241.7,1204.2,251.1L1204.2,251.1z"/>
			</g>
			<g id="XMLID_821_">
				<path id="XMLID_44_" class="st0" d="M1221.2,278.6c-1,0-1.9-0.1-2.9-0.2l0,0c-6.5-0.8-12.2-4-16.2-9.1s-5.8-11.5-5-18
					c1.6-13.3,13.8-22.9,27.1-21.3c6.5,0.8,12.2,4,16.2,9.1s5.8,11.5,5,18C1243.9,269.5,1233.4,278.6,1221.2,278.6z M1219.1,271.4
					c9.5,1.1,18.1-5.7,19.3-15.1c0.6-4.6-0.7-9.1-3.6-12.8c-2.9-3.6-7-6-11.5-6.5c-9.5-1.1-18.1,5.6-19.3,15.1
					c-0.6,4.6,0.7,9.1,3.6,12.8C1210.4,268.6,1214.5,270.9,1219.1,271.4L1219.1,271.4z"/>
				<path id="XMLID_43_" class="st0" d="M1221.3,278.5c-1.4,0-2.9-0.1-4.3-0.4c-11.6-2.1-20.1-12.1-20.1-24c0-1.4,0.1-2.9,0.4-4.3
					l6.9,1.2c-0.2,1-0.3,2-0.3,3.1c0,8.4,6,15.6,14.3,17c1,0.2,2,0.3,3.1,0.3c8.4,0,15.6-6,17-14.3c0.2-1,0.3-2,0.3-3.1
					c0-6-3.2-11.7-8.4-14.8l3.6-6c7.3,4.4,11.8,12.4,11.8,20.8c0,1.4-0.1,2.9-0.4,4.3C1243.1,270.1,1233.1,278.5,1221.3,278.5z"/>
			</g>
		</g>
		<g id="XMLID_42_">
			
				<rect id="XMLID_48_" x="1265.2" y="299.7" transform="matrix(-0.866 -0.5001 0.5001 -0.866 2213.135 1209.9581)" class="st0" width="7" height="17.4"/>
			
				<rect id="XMLID_53_" x="1248.8" y="328.1" transform="matrix(-0.866 -0.5001 0.5001 -0.866 2168.3242 1254.7368)" class="st0" width="7" height="17.4"/>
			<path id="XMLID_62_" class="st0" d="M1319.9,329.7l-65.1,37.6c1.3,1.9,2.5,4,3.5,6.1l65.1-37.6
				C1321.9,333.9,1320.7,331.9,1319.9,329.7z"/>
			<path id="XMLID_99_" class="st0" d="M1187.7,367.2l-65.1-37.6c-0.8,2.2-2,4.2-3.5,6.1l65.1,37.6
				C1185.2,371.2,1186.4,369.2,1187.7,367.2z"/>
			<path id="XMLID_100_" class="st0" d="M1224.7,349.8v-75.1c-1.9,0.3-4,0.4-6,0.2c-0.3,0-0.7-0.1-1-0.2v75.1
				c1.2-0.1,2.3-0.2,3.5-0.2C1222.4,349.6,1223.6,349.7,1224.7,349.8z"/>
			<rect id="XMLID_101_" x="1150.3" y="387.1" class="st0" width="17.4" height="7"/>
			
				<rect id="XMLID_102_" x="1181.4" y="333.3" transform="matrix(-0.5 -0.866 0.866 -0.5 1493.5125 1535.7672)" class="st0" width="17.4" height="7"/>
			<rect id="XMLID_103_" x="1274.8" y="387.1" class="st0" width="17.4" height="7"/>
			<rect id="XMLID_104_" x="1307.5" y="387.1" class="st0" width="17.4" height="7"/>
			
				<rect id="XMLID_105_" x="1165" y="304.8" transform="matrix(0.5 0.866 -0.866 0.5 853.8694 -862.2893)" class="st0" width="17.4" height="7"/>
			<rect id="XMLID_106_" x="1117.6" y="387.1" class="st0" width="17.4" height="7"/>
		</g>
	</g>
	<g id="XMLID_812_">
		<g id="XMLID_816_">
			<g id="XMLID_41_">
				<path id="XMLID_38_" class="st0" d="M948.8,434.1c-24.1,0-43.7-19.6-43.7-43.7s19.6-43.7,43.7-43.7s43.7,19.6,43.7,43.7
					S972.9,434.1,948.8,434.1z M948.8,352.5c-20.9,0-37.9,17-37.9,37.9s17,37.9,37.9,37.9s37.9-17,37.9-37.9
					S969.7,352.5,948.8,352.5z"/>
			</g>
			<g id="XMLID_36_">
				<path id="XMLID_33_" class="st0" d="M948.8,434.1c-24.1,0-43.7-19.6-43.7-43.7s19.6-43.7,43.7-43.7s43.7,19.6,43.7,43.7
					S972.9,434.1,948.8,434.1z M948.8,352.5c-20.9,0-37.9,17-37.9,37.9s17,37.9,37.9,37.9s37.9-17,37.9-37.9
					S969.7,352.5,948.8,352.5z"/>
			</g>
		</g>
		<g id="XMLID_813_">
			<g id="XMLID_31_">
				<path id="XMLID_28_" class="st0" d="M948.8,434.1c-24.1,0-43.7-19.6-43.7-43.7s19.6-43.7,43.7-43.7s43.7,19.6,43.7,43.7
					S972.9,434.1,948.8,434.1z M948.8,352.5c-20.9,0-37.9,17-37.9,37.9s17,37.9,37.9,37.9s37.9-17,37.9-37.9
					S969.7,352.5,948.8,352.5z"/>
			</g>
			<path id="XMLID_23_" class="st0" d="M948.8,434.1c-24.1,0-43.7-19.6-43.7-43.7s19.6-43.7,43.7-43.7s43.7,19.6,43.7,43.7
				S972.9,434.1,948.8,434.1z M948.8,352.5c-20.9,0-37.9,17-37.9,37.9s17,37.9,37.9,37.9s37.9-17,37.9-37.9S969.7,352.5,948.8,352.5
				z"/>
		</g>
	</g>
	<g id="XMLID_793_">
		<g id="XMLID_794_">
			<path id="XMLID_795_" class="st0" d="M961.4,404.3c-0.9,0.1-1.8,0.1-2.6-0.3c-1-0.4-1.8-1.2-2.5-2.1c-1.2-1.5-1.9-3.2-2.4-5.1
				c-0.3-1-0.5-2-0.6-3c0.4-0.1,0.9-0.2,1.3-0.3c3.2-1,5.4-3.1,6.7-6.1c1-2.5,1.2-5,0.7-7.6c-0.4-1.9-1.1-3.6-2.3-5.2
				c-1.1-1.4-2.4-2.4-4.1-3.1c-1.6-0.7-3.2-0.9-4.9-0.9c-5.1,0-15.7,0-15.7,0c0,12.6,0,25.2,0,37.8c1.8,0,3.6,0,5.4,0
				c0-4.8,0-9.5,0-14.3c2.6,0,5.1,0,7.7,0c0,0.1,0,0.3,0.1,0.4c0.3,2.4,0.8,4.6,1.8,6.8c0.8,1.9,1.9,3.7,3.4,5.1s3.2,2.2,5.2,2.5
				c1.7,0.3,3.4,0.1,5.1-0.5c1.2-0.4,2.3-1.1,3.2-2c-0.6-1.2-1.3-2.4-1.9-3.7C963.9,403.5,962.7,404.1,961.4,404.3z M949.6,389.7
				c-3.6,0-9.2,0-9.2,0c0-4.9,0-9.8,0-14.8c0.1,0,0.2,0,0.3,0c3,0,5.9,0,8.9,0c1.4,0,2.7,0.3,3.9,1c1.4,0.9,2.3,2.2,2.7,3.8
				c0.6,2.3,0.5,4.5-0.6,6.6c-0.9,1.7-2.3,2.7-4.1,3.1C950.9,389.6,950.3,389.7,949.6,389.7z"/>
		</g>
	</g>
	<g id="XMLID_781_">
		<g id="XMLID_782_">
			<path id="XMLID_783_" class="st0" d="M1233.8,404.3c-0.9,0.1-1.8,0.1-2.6-0.3c-1-0.4-1.8-1.2-2.5-2.1c-1.2-1.5-1.9-3.2-2.4-5.1
				c-0.3-1-0.5-2-0.6-3c0.4-0.1,0.9-0.2,1.3-0.3c3.2-1,5.4-3.1,6.7-6.1c1-2.5,1.2-5,0.7-7.6c-0.4-1.9-1.1-3.6-2.3-5.2
				c-1.1-1.4-2.4-2.4-4.1-3.1c-1.6-0.7-3.2-0.9-4.9-0.9c-5.1,0-15.7,0-15.7,0c0,12.6,0,25.2,0,37.8c1.8,0,3.6,0,5.4,0
				c0-4.8,0-9.5,0-14.3c2.6,0,5.1,0,7.7,0c0,0.1,0,0.3,0.1,0.4c0.3,2.4,0.8,4.6,1.8,6.8c0.8,1.9,1.9,3.7,3.4,5.1s3.2,2.2,5.2,2.5
				c1.7,0.3,3.4,0.1,5.1-0.5c1.2-0.4,2.3-1.1,3.2-2c-0.6-1.2-1.3-2.4-1.9-3.7C1236.2,403.5,1235.1,404.1,1233.8,404.3z M1222,389.7
				c-3.6,0-9.2,0-9.2,0c0-4.9,0-9.8,0-14.8c0.1,0,0.2,0,0.3,0c3,0,5.9,0,8.9,0c1.4,0,2.7,0.3,3.9,1c1.4,0.9,2.3,2.2,2.7,3.8
				c0.6,2.3,0.5,4.5-0.6,6.6c-0.9,1.7-2.3,2.7-4.1,3.1C1223.3,389.6,1222.6,389.7,1222,389.7z"/>
		</g>
	</g>
	<g id="XMLID_2_">
		<rect id="XMLID_22_" x="878" y="386.9" class="st0" width="17.4" height="7"/>
		<path id="XMLID_26_" class="st0" d="M945.3,431v75.3c0.3-0.1,0.7-0.1,1-0.2c2.1-0.2,4.1-0.2,6,0.2V431c-1.2,0.1-2.3,0.2-3.5,0.2
			C947.7,431.2,946.5,431.1,945.3,431z"/>
		<rect id="XMLID_47_" x="1035.2" y="386.9" class="st0" width="17.4" height="7"/>
		<path id="XMLID_76_" class="st0" d="M911.9,407.7l-65.2,37.7c1.5,1.8,2.7,3.9,3.5,6.1l65.2-37.7
			C914.1,411.8,912.9,409.8,911.9,407.7z"/>
		<path id="XMLID_77_" class="st0" d="M985.8,407.7c-1,2.1-2.2,4.2-3.5,6.1l65.2,37.7c0.8-2.2,2-4.3,3.5-6.1L985.8,407.7z"/>
		<rect id="XMLID_165_" x="1002.4" y="386.9" class="st0" width="17.4" height="7"/>
		
			<rect id="XMLID_166_" x="987.6" y="469.2" transform="matrix(-0.5 -0.866 0.866 -0.5 1085.1338 1571.9313)" class="st0" width="17.4" height="7"/>
		<rect id="XMLID_167_" x="845.2" y="386.9" class="st0" width="17.4" height="7"/>
		
			<rect id="XMLID_168_" x="971.2" y="440.7" transform="matrix(0.5 0.866 -0.866 0.5 874.6789 -626.5166)" class="st0" width="17.4" height="7"/>
		
			<rect id="XMLID_169_" x="914.3" y="435.6" transform="matrix(0.8661 0.4999 -0.4999 0.8661 344.994 -399.2877)" class="st0" width="7" height="17.4"/>
		
			<rect id="XMLID_170_" x="897.9" y="464" transform="matrix(0.8661 0.4999 -0.4999 0.8661 356.99 -387.2995)" class="st0" width="7" height="17.4"/>
	</g>
	<g id="XMLID_125_">
		<path id="XMLID_145_" class="st0" d="M897.6,520.7c9.7,3.8,19.9,6.6,30.5,8.2c-0.2-2.4,0-4.8,0.5-7c-9.7-1.5-19.1-4-28-7.5
			C900,516.6,898.9,518.7,897.6,520.7z"/>
		<path id="XMLID_150_" class="st0" d="M1084.8,411.5c-1.6,0-3.1-0.2-4.6-0.5c-1.5,9.6-4,18.8-7.4,27.6c2.3,0.7,4.4,1.7,6.3,3.1
			c3.8-9.6,6.6-19.8,8.2-30.3C1086.4,411.4,1085.6,411.5,1084.8,411.5z"/>
		<path id="XMLID_151_" class="st0" d="M1000.1,520.7c-1.4-1.9-2.4-4-3.1-6.3c-8.9,3.5-18.3,6-28,7.5c0.2,0.8,0.4,1.7,0.5,2.5
			c0.2,1.5,0.2,3,0.1,4.5C980.2,527.2,990.4,524.5,1000.1,520.7z"/>
		<path id="XMLID_152_" class="st0" d="M1052.5,473.6c-6.1,7.5-12.9,14.4-20.5,20.5c1.6,1.7,3,3.6,4,5.8
			c8.2-6.6,15.7-14.1,22.3-22.3C1056.1,476.5,1054.2,475.2,1052.5,473.6z"/>
		<path id="XMLID_153_" class="st0" d="M817.4,410.6c-1.6,0.4-3.3,0.6-5,0.6c-0.7,0-1.3,0-2-0.1c1.6,10.6,4.4,20.8,8.2,30.5
			c1.9-1.4,4.1-2.4,6.3-3.1C821.5,429.7,818.9,420.3,817.4,410.6z"/>
		<path id="XMLID_154_" class="st0" d="M865.7,494c-7.5-6.1-14.4-12.9-20.5-20.5c-1.7,1.7-3.7,3-5.8,4c6.6,8.2,14.1,15.7,22.3,22.3
			C862.7,497.7,864,495.7,865.7,494z"/>
	</g>
</g>
</svg>
