<?xml version="1.0" encoding="utf-8"?>
<!-- Generator: Adobe Illustrator 19.0.0, SVG Export Plug-In . SVG Version: 6.00 Build 0)  -->
<svg version="1.1" id="Layer_1" xmlns="http://www.w3.org/2000/svg" xmlns:xlink="http://www.w3.org/1999/xlink" x="0px" y="0px"
	 viewBox="0 0 1369.1 932.6" style="enable-background:new 0 0 1369.1 932.6;" xml:space="preserve">
<style type="text/css">
	.st0{fill:#FFFFFF;}
</style>
<g id="XMLID_780_">
	<g id="XMLID_786_">
		<g id="XMLID_790_">
			<g id="XMLID_21_">
				<path id="XMLID_18_" class="st0" d="M842.2,504.7c-24.1,0-43.7-19.6-43.7-43.7c0-24.1,19.6-43.7,43.7-43.7
					c24.1,0,43.7,19.6,43.7,43.7C885.9,485.1,866.3,504.7,842.2,504.7z M842.2,423.1c-20.9,0-37.9,17-37.9,37.9s17,37.9,37.9,37.9
					s37.9-17,37.9-37.9S863.1,423.1,842.2,423.1z"/>
			</g>
			<g id="XMLID_16_">
				<path id="XMLID_13_" class="st0" d="M842.2,504.7c-24.1,0-43.7-19.6-43.7-43.7c0-24.1,19.6-43.7,43.7-43.7
					c24.1,0,43.7,19.6,43.7,43.7C885.9,485.1,866.3,504.7,842.2,504.7z M842.2,423.1c-20.9,0-37.9,17-37.9,37.9s17,37.9,37.9,37.9
					s37.9-17,37.9-37.9S863.1,423.1,842.2,423.1z"/>
			</g>
		</g>
		<g id="XMLID_787_">
			<g id="XMLID_11_">
				<path id="XMLID_8_" class="st0" d="M842.2,504.7c-24.1,0-43.7-19.6-43.7-43.7c0-24.1,19.6-43.7,43.7-43.7
					c24.1,0,43.7,19.6,43.7,43.7C885.9,485.1,866.3,504.7,842.2,504.7z M842.2,423.1c-20.9,0-37.9,17-37.9,37.9s17,37.9,37.9,37.9
					s37.9-17,37.9-37.9S863.1,423.1,842.2,423.1z"/>
			</g>
			<g id="XMLID_6_">
				<path id="XMLID_3_" class="st0" d="M842.2,504.7c-24.1,0-43.7-19.6-43.7-43.7c0-24.1,19.6-43.7,43.7-43.7
					c24.1,0,43.7,19.6,43.7,43.7C885.9,485.1,866.3,504.7,842.2,504.7z M842.2,423.1c-20.9,0-37.9,17-37.9,37.9s17,37.9,37.9,37.9
					s37.9-17,37.9-37.9S863.1,423.1,842.2,423.1z"/>
			</g>
		</g>
	</g>
	<g id="XMLID_941_">
		<g id="XMLID_945_">
			<path id="XMLID_146_" class="st0" d="M688,553.6c-0.6,0-1.1,0-1.7-0.1c-13.4-0.9-23.5-12.6-22.6-26l0,0
				c0.9-13.4,12.6-23.6,26-22.6c6.5,0.4,12.4,3.4,16.7,8.3s6.4,11.2,5.9,17.7C711.4,543.7,700.7,553.6,688,553.6z M670.7,528
				c-0.7,9.5,6.6,17.8,16.1,18.5c9.6,0.7,17.8-6.6,18.5-16.1c0.3-4.6-1.2-9.1-4.2-12.6s-7.3-5.6-11.9-5.9
				C679.7,511.3,671.4,518.5,670.7,528L670.7,528z"/>
		</g>
		<g id="XMLID_942_">
			<path id="XMLID_141_" class="st0" d="M688,553.6c-0.6,0-1.1,0-1.7-0.1c-13.4-0.9-23.5-12.6-22.6-26l0,0
				c0.9-13.4,12.6-23.6,26-22.6c6.5,0.4,12.4,3.4,16.7,8.3s6.4,11.2,5.9,17.7C711.4,543.7,700.7,553.6,688,553.6z M670.7,528
				c-0.7,9.5,6.6,17.8,16.1,18.5c9.6,0.7,17.8-6.6,18.5-16.1c0.3-4.6-1.2-9.1-4.2-12.6s-7.3-5.6-11.9-5.9
				C679.7,511.3,671.4,518.5,670.7,528L670.7,528z"/>
			<path id="XMLID_140_" class="st0" d="M688,553.6c-0.6,0-1.1,0-1.7-0.1c-8.8-0.6-16.7-6-20.4-14l6.4-3c2.7,5.7,8.2,9.6,14.5,10
				c9.6,0.7,17.8-6.6,18.5-16.1c0-0.4,0-0.8,0-1.2c0-9.1-7.1-16.6-16.1-17.3c-9.6-0.7-17.8,6.6-18.5,16.1l-7-0.5
				c0.9-13.3,12.5-23.6,26-22.6c12.7,0.9,22.7,11.5,22.7,24.3c0,0.6,0,1.1-0.1,1.7C711.4,543.6,700.8,553.6,688,553.6z"/>
		</g>
	</g>
	<g id="XMLID_935_">
		<path id="XMLID_69_" class="st0" d="M638.1,554.8c-13.4,0-24.4,10.9-24.4,24.4s10.9,24.4,24.4,24.4s24.4-10.9,24.4-24.4
			S651.5,554.8,638.1,554.8z M638.1,600c-11.5,0-20.8-9.3-20.8-20.8c0-11.5,9.3-20.8,20.8-20.8c11.5,0,20.8,9.3,20.8,20.8
			C658.9,590.7,649.6,600,638.1,600z"/>
		<path id="XMLID_136_" class="st0" d="M638.1,603.5c-13.4,0-24.4-10.9-24.4-24.4c0-10,6.3-19.1,15.6-22.7l2.5,6.5
			c-6.7,2.6-11.1,9.1-11.1,16.2c0,9.6,7.8,17.3,17.3,17.3s17.3-7.8,17.3-17.3h7C662.4,592.6,651.5,603.5,638.1,603.5z"/>
	</g>
	<g id="XMLID_928_">
		<path id="XMLID_139_" class="st0" d="M501.6,554.8c-13.4,0-24.4,10.9-24.4,24.4s10.9,24.4,24.4,24.4s24.4-10.9,24.4-24.4
			S515,554.8,501.6,554.8z M501.6,600c-11.5,0-20.8-9.3-20.8-20.8c0-11.5,9.3-20.8,20.8-20.8s20.8,9.3,20.8,20.8
			C522.5,590.7,513.1,600,501.6,600z"/>
		<path id="XMLID_132_" class="st0" d="M501.6,603.5c-13.4,0-24.4-10.9-24.4-24.4c0-10,6.3-19.1,15.6-22.7l2.5,6.5
			c-6.7,2.6-11.1,9.1-11.1,16.2c0,9.6,7.8,17.3,17.3,17.3s17.3-7.8,17.3-17.3h7C526,592.6,515,603.5,501.6,603.5z"/>
	</g>
	<g id="XMLID_921_">
		<path id="XMLID_137_" class="st0" d="M463.4,507.9c-11.8-6.5-26.6-2.2-33.1,9.6c-6.5,11.8-2.2,26.6,9.6,33.1c3.7,2,7.7,3,11.7,3
			c8.6,0,16.9-4.6,21.4-12.6C479.5,529.2,475.2,514.4,463.4,507.9z M469.9,539.3c-5.6,10.1-18.2,13.8-28.3,8.2
			c-10.1-5.6-13.8-18.2-8.2-28.3s18.2-13.8,28.3-8.2C471.8,516.5,475.5,529.2,469.9,539.3z"/>
		<path id="XMLID_128_" class="st0" d="M451.7,553.6c-1.1,0-2.2-0.1-3.3-0.2l1-7c0.8,0.1,1.6,0.2,2.4,0.2c6.3,0,12.2-3.4,15.2-9
			c1.4-2.6,2.2-5.4,2.2-8.4c0-6.3-3.4-12.2-9-15.2c-2.6-1.4-5.4-2.2-8.4-2.2c-6.3,0-12.2,3.4-15.2,9l-6.1-3.4
			c4.3-7.8,12.5-12.6,21.4-12.6c4.1,0,8.1,1,11.7,3c7.8,4.3,12.6,12.5,12.6,21.4c0,4.1-1,8.1-3,11.7
			C468.7,548.8,460.5,553.6,451.7,553.6z"/>
	</g>
	<g id="XMLID_914_">
		<path id="XMLID_134_" class="st0" d="M433.4,436.7c-13.4,0-24.4,10.9-24.4,24.4s10.9,24.4,24.4,24.4s24.4-10.9,24.4-24.4
			S446.8,436.7,433.4,436.7z M433.4,481.9c-11.5,0-20.8-9.3-20.8-20.8c0-11.5,9.3-20.8,20.8-20.8c11.5,0,20.8,9.3,20.8,20.8
			C454.2,472.5,444.9,481.9,433.4,481.9z"/>
		<path id="XMLID_124_" class="st0" d="M433.4,485.4c-13.4,0-24.4-10.9-24.4-24.4c0-10,6.3-19.1,15.6-22.7l2.5,6.5
			c-6.7,2.6-11.1,9.1-11.1,16.2c0,9.6,7.8,17.3,17.3,17.3s17.3-7.8,17.3-17.3h7C457.7,474.4,446.8,485.4,433.4,485.4z"/>
	</g>
	<g id="XMLID_906_">
		<g id="XMLID_910_">
			<path id="XMLID_121_" class="st0" d="M705.8,485.4c-13.4,0-24.4-10.9-24.4-24.4s10.9-24.4,24.4-24.4s24.4,10.9,24.4,24.4
				S719.2,485.4,705.8,485.4z M705.8,443.7c-9.6,0-17.3,7.8-17.3,17.3s7.8,17.3,17.3,17.3s17.3-7.8,17.3-17.3
				S715.3,443.7,705.8,443.7z"/>
		</g>
		<g id="XMLID_907_">
			<path id="XMLID_120_" class="st0" d="M705.8,485.4c-13.4,0-24.4-10.9-24.4-24.4c0-10,6.3-19.1,15.6-22.7l2.5,6.5
				c-6.6,2.6-11.1,9.1-11.1,16.2c0,9.6,7.8,17.3,17.3,17.3s17.3-7.8,17.3-17.3h7C730.1,474.4,719.2,485.4,705.8,485.4z"/>
		</g>
	</g>
	<g id="XMLID_899_">
		<g id="XMLID_903_">
			<path id="XMLID_117_" class="st0" d="M569.8,621.8c-11.6,0-21.9-8.3-24-20.1l0,0c-1.1-6.4,0.3-12.9,4-18.2s9.3-8.9,15.7-10
				c6.4-1.1,12.9,0.3,18.2,4s8.9,9.3,10,15.7c2.3,13.2-6.5,25.9-19.7,28.2C572.7,621.7,571.2,621.8,569.8,621.8z M552.8,600.5
				c1.7,9.4,10.7,15.7,20.1,14c9.4-1.7,15.7-10.7,14-20.1c-0.8-4.6-3.3-8.5-7.1-11.2c-3.8-2.7-8.4-3.7-13-2.9
				c-4.6,0.8-8.5,3.3-11.2,7.1C553,591.4,552,596,552.8,600.5L552.8,600.5z"/>
		</g>
		<g id="XMLID_900_">
			<path id="XMLID_112_" class="st0" d="M569.8,621.8c-12.1,0-22.7-9.1-24.2-21.4c-0.8-6.5,1-12.8,5-18c4-5.1,9.8-8.4,16.2-9.1
				c13.3-1.6,25.5,7.9,27.1,21.3c0.8,6.5-1,12.8-5,18c-4,5.1-9.8,8.4-16.2,9.1C571.8,621.8,570.8,621.8,569.8,621.8z M569.8,580.1
				c-0.7,0-1.4,0-2.1,0.1h0c-4.6,0.6-8.7,2.9-11.5,6.5c-2.9,3.6-4.1,8.2-3.6,12.8c1.2,9.5,9.8,16.3,19.3,15.1
				c4.6-0.6,8.7-2.9,11.5-6.5c2.9-3.6,4.1-8.2,3.6-12.8C586,586.6,578.5,580.1,569.8,580.1z"/>
			<path id="XMLID_111_" class="st0" d="M582.4,618.4l-3.6-6c5.2-3.1,8.4-8.8,8.4-14.8c0-1-0.1-2-0.3-3.1c-1.5-8.3-8.6-14.3-17-14.3
				c-1,0-2,0.1-3.1,0.3c-8.3,1.5-14.3,8.6-14.3,17c0,1,0.1,2,0.3,3.1l-6.9,1.2c-0.3-1.4-0.4-2.9-0.4-4.3c0-11.8,8.5-21.9,20.1-24
				c1.4-0.3,2.9-0.4,4.3-0.4c11.8,0,21.9,8.5,24,20.1c0.3,1.4,0.4,2.9,0.4,4.3C594.2,606,589.7,614,582.4,618.4z"/>
		</g>
	</g>
	<g id="XMLID_819_">
		<g id="XMLID_81_">
			<path id="XMLID_82_" class="st0" d="M791,331c1.4,1.9,2.4,4,3.1,6.3c8.9-3.5,18.3-6,28-7.5c-0.6-2.2-0.7-4.6-0.5-7
				C810.9,324.4,800.7,327.2,791,331z"/>
			<path id="XMLID_84_" class="st0" d="M893.5,331c-9.7-3.8-19.9-6.6-30.5-8.2c0.1,1.5,0.1,3-0.1,4.5c-0.1,0.9-0.3,1.7-0.5,2.5
				c9.7,1.5,19.1,4,28,7.5C891.1,335,892.1,332.9,893.5,331z"/>
			<path id="XMLID_85_" class="st0" d="M966.1,413.1c3.5,8.9,6,18.2,7.5,27.8c1.5-0.3,3-0.5,4.5-0.5c0.8,0,1.7,0.1,2.5,0.2
				c-1.6-10.6-4.4-20.9-8.2-30.6C970.6,411.4,968.4,412.4,966.1,413.1z"/>
			<path id="XMLID_86_" class="st0" d="M703.8,440.5c0.6-0.1,1.3-0.1,2-0.1c1.7,0,3.4,0.2,5,0.6c1.5-9.7,4-19.1,7.5-28
				c-2.3-0.6-4.4-1.7-6.3-3.1C708.2,419.7,705.4,429.9,703.8,440.5z"/>
			<path id="XMLID_87_" class="st0" d="M951.7,374.1c-6.6-8.2-14.1-15.7-22.3-22.3c-1,2.2-2.3,4.1-4,5.8
				c7.5,6.1,14.4,12.9,20.5,20.5C947.5,376.5,949.5,375.1,951.7,374.1z"/>
			<path id="XMLID_88_" class="st0" d="M755.1,351.8c-8.2,6.6-15.7,14.1-22.3,22.3c2.1,1,4.1,2.3,5.8,4c6.1-7.5,12.9-14.4,20.5-20.5
				C757.4,355.9,756.1,354,755.1,351.8z"/>
		</g>
		<g id="XMLID_862_">
			<g id="XMLID_866_">
				<path id="XMLID_78_" class="st0" d="M960.4,417.4c-12.7,0-23.4-9.8-24.3-22.7l0,0c-0.5-6.5,1.7-12.8,5.9-17.7
					c4.3-4.9,10.2-7.9,16.7-8.3c13.4-0.9,25.1,9.2,26,22.6c0.5,6.5-1.7,12.8-5.9,17.7s-10.2,7.9-16.7,8.3
					C961.5,417.4,960.9,417.4,960.4,417.4z M960.4,375.7c-0.4,0-0.8,0-1.2,0c-4.6,0.3-8.8,2.4-11.9,5.9c-3,3.5-4.5,8-4.2,12.6l0,0
					c0.7,9.5,9,16.8,18.5,16.1c4.6-0.3,8.8-2.4,11.9-5.9s4.5-8,4.2-12.6C977.1,382.7,969.4,375.7,960.4,375.7z"/>
			</g>
			<g id="XMLID_863_">
				<path id="XMLID_73_" class="st0" d="M960.4,417.4c-12.7,0-23.4-9.8-24.3-22.7l0,0c-0.5-6.5,1.7-12.8,5.9-17.7
					c4.3-4.9,10.2-7.9,16.7-8.3c13.4-0.9,25.1,9.2,26,22.6c0.5,6.5-1.7,12.8-5.9,17.7s-10.2,7.9-16.7,8.3
					C961.5,417.4,960.9,417.4,960.4,417.4z M960.4,375.7c-0.4,0-0.8,0-1.2,0c-4.6,0.3-8.8,2.4-11.9,5.9c-3,3.5-4.5,8-4.2,12.6l0,0
					c0.7,9.5,9,16.8,18.5,16.1c4.6-0.3,8.8-2.4,11.9-5.9s4.5-8,4.2-12.6C977.1,382.7,969.4,375.7,960.4,375.7z"/>
				<path id="XMLID_72_" class="st0" d="M960.4,417.4c-12.7,0-23.4-10-24.3-22.7l7-0.5c0.7,9.5,8.9,16.8,18.5,16.1
					c9.1-0.6,16.1-8.2,16.1-17.3c0-0.4,0-0.8,0-1.2c-0.7-9.4-8.9-16.8-18.5-16.1c-6.3,0.4-11.9,4.3-14.5,10l-6.4-3
					c3.7-8,11.6-13.4,20.4-14c0.6,0,1.1-0.1,1.7-0.1c12.7,0,23.4,10,24.3,22.7c0,0.6,0.1,1.1,0.1,1.7c0,12.7-10,23.4-22.7,24.3
					C961.5,417.4,960.9,417.4,960.4,417.4z"/>
			</g>
		</g>
		<g id="XMLID_856_">
			<path id="XMLID_183_" class="st0" d="M910.5,318.7c-13.4,0-24.4,10.9-24.4,24.4s10.9,24.4,24.4,24.4s24.4-10.9,24.4-24.4
				S923.9,318.7,910.5,318.7z M910.5,363.9c-11.5,0-20.8-9.3-20.8-20.8s9.3-20.8,20.8-20.8c11.5,0,20.8,9.3,20.8,20.8
				S922,363.9,910.5,363.9z"/>
			<path id="XMLID_68_" class="st0" d="M901.7,365.8c-9.3-3.6-15.6-12.7-15.6-22.7c0-13.4,10.9-24.4,24.4-24.4s24.4,10.9,24.4,24.4
				h-7c0-9.6-7.8-17.3-17.3-17.3s-17.3,7.8-17.3,17.3c0,7.1,4.5,13.6,11.1,16.2L901.7,365.8z"/>
		</g>
		<g id="XMLID_849_">
			<path id="XMLID_182_" class="st0" d="M774,318.7c-13.4,0-24.4,10.9-24.4,24.4s10.9,24.4,24.4,24.4s24.4-10.9,24.4-24.4
				S787.4,318.7,774,318.7z M774,363.9c-11.5,0-20.8-9.3-20.8-20.8s9.3-20.8,20.8-20.8s20.8,9.3,20.8,20.8S785.5,363.9,774,363.9z"
				/>
			<path id="XMLID_64_" class="st0" d="M765.3,365.8c-9.3-3.6-15.6-12.7-15.6-22.7c0-13.4,10.9-24.4,24.4-24.4s24.4,10.9,24.4,24.4
				h-7c0-9.6-7.8-17.3-17.3-17.3s-17.3,7.8-17.3,17.3c0,7.1,4.5,13.6,11.1,16.2L765.3,365.8z"/>
		</g>
		<g id="XMLID_842_">
			<path id="XMLID_180_" class="st0" d="M745.4,381.3c-3.1-5.7-8.3-9.8-14.6-11.6c-6.2-1.8-12.8-1.1-18.5,2.1
				c-5.7,3.1-9.8,8.3-11.6,14.6c-1.8,6.2-1.1,12.8,2.1,18.5c4.4,8,12.8,12.6,21.4,12.6c4,0,8-1,11.7-3c5.7-3.1,9.8-8.3,11.6-14.6
				C749.3,393.5,748.5,387,745.4,381.3z M734.1,411.3c-10.1,5.6-22.8,1.9-28.3-8.2c-5.6-10.1-1.9-22.8,8.2-28.3
				c10.1-5.6,22.8-1.9,28.3,8.2C747.9,393,744.2,405.7,734.1,411.3z"/>
			<path id="XMLID_60_" class="st0" d="M724.1,417.4c-8.9,0-17.1-4.8-21.4-12.6l6.1-3.4c3,5.5,8.9,9,15.2,9c2.9,0,5.8-0.7,8.3-2.2
				c5.5-3.1,9-8.9,9-15.2c0-2.9-0.7-5.8-2.2-8.4c-3.1-5.5-8.9-9-15.2-9c-0.8,0-1.6,0.1-2.4,0.2l-1-7c1.1-0.2,2.2-0.2,3.3-0.2
				c8.9,0,17.1,4.8,21.4,12.6c2,3.6,3,7.7,3,11.7c0,8.9-4.8,17.1-12.6,21.3C732.2,416.3,728.2,417.4,724.1,417.4z"/>
		</g>
		<g id="XMLID_834_">
			<g id="XMLID_838_">
				<path id="XMLID_57_" class="st0" d="M705.8,485.6c-13.4,0-24.4-10.9-24.4-24.4s10.9-24.4,24.4-24.4s24.4,10.9,24.4,24.4
					S719.2,485.6,705.8,485.6z M705.8,443.9c-9.6,0-17.3,7.8-17.3,17.3s7.8,17.3,17.3,17.3s17.3-7.8,17.3-17.3
					S715.3,443.9,705.8,443.9z"/>
			</g>
			<path id="XMLID_56_" class="st0" d="M697,484c-9.3-3.6-15.6-12.7-15.6-22.7c0-13.4,10.9-24.4,24.4-24.4s24.4,10.9,24.4,24.4h-7
				c0-9.6-7.8-17.3-17.3-17.3s-17.3,7.8-17.3,17.3c0,7.1,4.5,13.6,11.1,16.2L697,484z"/>
		</g>
		<g id="XMLID_828_">
			<path id="XMLID_71_" class="st0" d="M978.2,436.9c-13.4,0-24.4,10.9-24.4,24.4s10.9,24.4,24.4,24.4s24.4-10.9,24.4-24.4
				S991.6,436.9,978.2,436.9z M978.2,482.1c-11.5,0-20.8-9.3-20.8-20.8s9.3-20.8,20.8-20.8c11.5,0,20.8,9.3,20.8,20.8
				S989.7,482.1,978.2,482.1z"/>
			<path id="XMLID_52_" class="st0" d="M969.4,484c-9.3-3.6-15.6-12.7-15.6-22.7c0-13.4,10.9-24.4,24.4-24.4s24.4,10.9,24.4,24.4h-7
				c0-9.6-7.8-17.3-17.3-17.3s-17.3,7.8-17.3,17.3c0,7.1,4.5,13.6,11.1,16.2L969.4,484z"/>
		</g>
		<g id="XMLID_820_">
			<g id="XMLID_824_">
				<path id="XMLID_49_" class="st0" d="M842.3,349.1c-1.4,0-2.9-0.1-4.3-0.4c-13.2-2.3-22.1-15-19.7-28.2v0
					c2.3-13.2,15-22.1,28.2-19.7c13.2,2.3,22.1,15,19.7,28.2c-1.1,6.4-4.7,12-10,15.7C852,347.6,847.2,349.1,842.3,349.1z
					 M825.2,321.7c-1.7,9.4,4.6,18.4,14,20.1c4.6,0.8,9.2-0.2,13-2.9c3.8-2.7,6.3-6.6,7.1-11.2c1.7-9.4-4.6-18.4-14-20.1
					C835.8,306,826.8,312.3,825.2,321.7L825.2,321.7z"/>
			</g>
			<g id="XMLID_821_">
				<path id="XMLID_44_" class="st0" d="M842.2,349.2c-1,0-1.9-0.1-2.9-0.2l0,0c-6.5-0.8-12.2-4-16.2-9.1c-4-5.1-5.8-11.5-5-18
					c1.6-13.3,13.8-22.9,27.1-21.3c6.5,0.8,12.2,4,16.2,9.1c4,5.1,5.8,11.5,5,18C864.9,340.1,854.4,349.2,842.2,349.2z M840.1,342
					c9.5,1.1,18.1-5.7,19.3-15.1c0.6-4.6-0.7-9.1-3.6-12.8c-2.9-3.6-7-6-11.5-6.5c-9.5-1.1-18.1,5.6-19.3,15.1
					c-0.6,4.6,0.7,9.1,3.6,12.8C831.4,339.2,835.5,341.5,840.1,342L840.1,342z"/>
				<path id="XMLID_43_" class="st0" d="M842.3,349.1c-1.4,0-2.9-0.1-4.3-0.4c-11.6-2.1-20.1-12.1-20.1-24c0-1.4,0.1-2.9,0.4-4.3
					l6.9,1.2c-0.2,1-0.3,2-0.3,3.1c0,8.4,6,15.6,14.3,17c1,0.2,2,0.3,3.1,0.3c8.4,0,15.6-6,17-14.3c0.2-1,0.3-2,0.3-3.1
					c0-6-3.2-11.7-8.4-14.8l3.6-6c7.3,4.4,11.8,12.4,11.8,20.8c0,1.4-0.1,2.9-0.4,4.3C864.1,340.7,854.1,349.1,842.3,349.1z"/>
			</g>
		</g>
		<g id="XMLID_42_">
			
				<rect id="XMLID_48_" x="886.2" y="370.3" transform="matrix(0.866 0.5001 -0.5001 0.866 308.761 -394.1367)" class="st0" width="7" height="17.4"/>
			
				<rect id="XMLID_53_" x="869.8" y="398.7" transform="matrix(0.866 0.5001 -0.5001 0.866 320.7613 -382.1354)" class="st0" width="7" height="17.4"/>
			<path id="XMLID_62_" class="st0" d="M940.9,400.3l-65.1,37.6c1.3,1.9,2.5,4,3.5,6.1l65.1-37.6
				C942.9,404.5,941.7,402.5,940.9,400.3z"/>
			<path id="XMLID_99_" class="st0" d="M808.7,437.8l-65.1-37.6c-0.8,2.2-2,4.2-3.5,6.1l65.1,37.6
				C806.2,441.8,807.4,439.8,808.7,437.8z"/>
			<path id="XMLID_100_" class="st0" d="M845.7,420.4v-75.1c-1.9,0.3-4,0.4-6,0.2c-0.3,0-0.7-0.1-1-0.2v75.1
				c1.2-0.1,2.3-0.2,3.5-0.2C843.4,420.2,844.6,420.3,845.7,420.4z"/>
			<rect id="XMLID_101_" x="771.3" y="457.7" class="st0" width="17.4" height="7"/>
			
				<rect id="XMLID_102_" x="802.4" y="403.9" transform="matrix(0.5 0.866 -0.866 0.5 758.3459 -498.7626)" class="st0" width="17.4" height="7"/>
			<rect id="XMLID_103_" x="895.8" y="457.7" class="st0" width="17.4" height="7"/>
			<rect id="XMLID_104_" x="928.5" y="457.7" class="st0" width="17.4" height="7"/>
			
				<rect id="XMLID_105_" x="786.1" y="375.5" transform="matrix(-0.5 -0.866 0.866 -0.5 863.8961 1256.7356)" class="st0" width="17.4" height="7"/>
			<rect id="XMLID_106_" x="738.6" y="457.7" class="st0" width="17.4" height="7"/>
		</g>
	</g>
	<g id="XMLID_812_">
		<g id="XMLID_816_">
			<g id="XMLID_41_">
				<path id="XMLID_38_" class="st0" d="M569.8,504.7c-24.1,0-43.7-19.6-43.7-43.7c0-24.1,19.6-43.7,43.7-43.7s43.7,19.6,43.7,43.7
					C613.5,485.1,593.9,504.7,569.8,504.7z M569.8,423.1c-20.9,0-37.9,17-37.9,37.9s17,37.9,37.9,37.9s37.9-17,37.9-37.9
					S590.7,423.1,569.8,423.1z"/>
			</g>
			<g id="XMLID_36_">
				<path id="XMLID_33_" class="st0" d="M569.8,504.7c-24.1,0-43.7-19.6-43.7-43.7c0-24.1,19.6-43.7,43.7-43.7s43.7,19.6,43.7,43.7
					C613.5,485.1,593.9,504.7,569.8,504.7z M569.8,423.1c-20.9,0-37.9,17-37.9,37.9s17,37.9,37.9,37.9s37.9-17,37.9-37.9
					S590.7,423.1,569.8,423.1z"/>
			</g>
		</g>
		<g id="XMLID_813_">
			<g id="XMLID_31_">
				<path id="XMLID_28_" class="st0" d="M569.8,504.7c-24.1,0-43.7-19.6-43.7-43.7c0-24.1,19.6-43.7,43.7-43.7s43.7,19.6,43.7,43.7
					C613.5,485.1,593.9,504.7,569.8,504.7z M569.8,423.1c-20.9,0-37.9,17-37.9,37.9s17,37.9,37.9,37.9s37.9-17,37.9-37.9
					S590.7,423.1,569.8,423.1z"/>
			</g>
			<path id="XMLID_23_" class="st0" d="M569.8,504.7c-24.1,0-43.7-19.6-43.7-43.7c0-24.1,19.6-43.7,43.7-43.7s43.7,19.6,43.7,43.7
				C613.5,485.1,593.9,504.7,569.8,504.7z M569.8,423.1c-20.9,0-37.9,17-37.9,37.9s17,37.9,37.9,37.9s37.9-17,37.9-37.9
				S590.7,423.1,569.8,423.1z"/>
		</g>
	</g>
	<g id="XMLID_793_">
		<g id="XMLID_794_">
			<path id="XMLID_795_" class="st0" d="M582.4,474.9c-0.9,0.1-1.8,0.1-2.6-0.3c-1-0.4-1.8-1.2-2.5-2.1c-1.2-1.5-1.9-3.2-2.4-5.1
				c-0.3-1-0.5-2-0.6-3c0.4-0.1,0.9-0.2,1.3-0.3c3.2-1,5.4-3.1,6.7-6.1c1-2.5,1.2-5,0.7-7.6c-0.4-1.9-1.1-3.6-2.3-5.2
				c-1.1-1.4-2.4-2.4-4.1-3.1c-1.6-0.7-3.2-0.9-4.9-0.9c-5.1,0-15.7,0-15.7,0c0,12.6,0,25.2,0,37.8c1.8,0,3.6,0,5.4,0
				c0-4.8,0-9.5,0-14.3c2.6,0,5.1,0,7.7,0c0,0.1,0,0.3,0.1,0.4c0.3,2.4,0.8,4.6,1.8,6.8c0.8,1.9,1.9,3.7,3.4,5.1
				c1.5,1.4,3.2,2.2,5.2,2.5c1.7,0.3,3.4,0.1,5.1-0.5c1.2-0.4,2.3-1.1,3.2-2c-0.6-1.2-1.3-2.4-1.9-3.7
				C584.9,474.1,583.7,474.7,582.4,474.9z M570.6,460.3c-3.6,0-9.2,0-9.2,0c0-4.9,0-9.8,0-14.8c0.1,0,0.2,0,0.3,0c3,0,5.9,0,8.9,0
				c1.4,0,2.7,0.3,3.9,1c1.4,0.9,2.3,2.2,2.7,3.8c0.6,2.3,0.5,4.5-0.6,6.6c-0.9,1.7-2.3,2.7-4.1,3.1
				C571.9,460.2,571.3,460.3,570.6,460.3z"/>
		</g>
	</g>
	<g id="XMLID_781_">
		<g id="XMLID_782_">
			<path id="XMLID_783_" class="st0" d="M854.8,474.9c-0.9,0.1-1.8,0.1-2.6-0.3c-1-0.4-1.8-1.2-2.5-2.1c-1.2-1.5-1.9-3.2-2.4-5.1
				c-0.3-1-0.5-2-0.6-3c0.4-0.1,0.9-0.2,1.3-0.3c3.2-1,5.4-3.1,6.7-6.1c1-2.5,1.2-5,0.7-7.6c-0.4-1.9-1.1-3.6-2.3-5.2
				c-1.1-1.4-2.4-2.4-4.1-3.1c-1.6-0.7-3.2-0.9-4.9-0.9c-5.1,0-15.7,0-15.7,0c0,12.6,0,25.2,0,37.8c1.8,0,3.6,0,5.4,0
				c0-4.8,0-9.5,0-14.3c2.6,0,5.1,0,7.7,0c0,0.1,0,0.3,0.1,0.4c0.3,2.4,0.8,4.6,1.8,6.8c0.8,1.9,1.9,3.7,3.4,5.1
				c1.5,1.4,3.2,2.2,5.2,2.5c1.7,0.3,3.4,0.1,5.1-0.5c1.2-0.4,2.3-1.1,3.2-2c-0.6-1.2-1.3-2.4-1.9-3.7
				C857.2,474.1,856.1,474.7,854.8,474.9z M843,460.3c-3.6,0-9.2,0-9.2,0c0-4.9,0-9.8,0-14.8c0.1,0,0.2,0,0.3,0c3,0,5.9,0,8.9,0
				c1.4,0,2.7,0.3,3.9,1c1.4,0.9,2.3,2.2,2.7,3.8c0.6,2.3,0.5,4.5-0.6,6.6c-0.9,1.7-2.3,2.7-4.1,3.1
				C844.3,460.2,843.6,460.3,843,460.3z"/>
		</g>
	</g>
	<g id="XMLID_2_">
		<rect id="XMLID_22_" x="499" y="457.5" class="st0" width="17.4" height="7"/>
		<path id="XMLID_26_" class="st0" d="M566.3,501.6v75.3c0.3-0.1,0.7-0.1,1-0.2c2.1-0.2,4.1-0.2,6,0.2v-75.3
			c-1.2,0.1-2.3,0.2-3.5,0.2C568.7,501.8,567.5,501.7,566.3,501.6z"/>
		<rect id="XMLID_47_" x="656.2" y="457.5" class="st0" width="17.4" height="7"/>
		<path id="XMLID_76_" class="st0" d="M532.9,478.3l-65.2,37.7c1.5,1.8,2.7,3.9,3.5,6.1l65.2-37.7
			C535.1,482.4,533.9,480.4,532.9,478.3z"/>
		<path id="XMLID_77_" class="st0" d="M606.8,478.3c-1,2.1-2.2,4.2-3.5,6.1l65.2,37.7c0.8-2.2,2-4.3,3.5-6.1L606.8,478.3z"/>
		<rect id="XMLID_165_" x="623.4" y="457.5" class="st0" width="17.4" height="7"/>
		
			<rect id="XMLID_166_" x="608.7" y="539.8" transform="matrix(0.5 0.866 -0.866 0.5 779.1355 -262.9994)" class="st0" width="17.4" height="7"/>
		<rect id="XMLID_167_" x="466.2" y="457.5" class="st0" width="17.4" height="7"/>
		
			<rect id="XMLID_168_" x="592.3" y="511.4" transform="matrix(-0.5 -0.866 0.866 -0.5 455.5233 1292.7629)" class="st0" width="17.4" height="7"/>
		
			<rect id="XMLID_169_" x="535.2" y="506.2" transform="matrix(-0.8661 -0.4999 0.4999 -0.8661 747.9321 1230.1343)" class="st0" width="7" height="17.4"/>
		
			<rect id="XMLID_170_" x="518.8" y="534.6" transform="matrix(-0.8661 -0.4999 0.4999 -0.8661 703.1532 1274.9176)" class="st0" width="7" height="17.4"/>
	</g>
	<g id="XMLID_125_">
		<path id="XMLID_145_" class="st0" d="M518.6,591.3c9.7,3.8,19.9,6.6,30.5,8.2c-0.2-2.4,0-4.8,0.5-7c-9.7-1.5-19.1-4-28-7.5
			C521,587.2,519.9,589.3,518.6,591.3z"/>
		<path id="XMLID_150_" class="st0" d="M705.8,482.1c-1.6,0-3.1-0.2-4.6-0.5c-1.5,9.6-4,18.8-7.4,27.6c2.3,0.7,4.4,1.7,6.3,3.1
			c3.8-9.6,6.6-19.8,8.2-30.3C707.4,482,706.6,482.1,705.8,482.1z"/>
		<path id="XMLID_151_" class="st0" d="M621.1,591.3c-1.4-1.9-2.4-4-3.1-6.3c-8.9,3.5-18.3,6-28,7.5c0.2,0.8,0.4,1.7,0.5,2.5
			c0.2,1.5,0.2,3,0.1,4.5C601.2,597.8,611.4,595.1,621.1,591.3z"/>
		<path id="XMLID_152_" class="st0" d="M673.5,544.2c-6.1,7.5-12.9,14.4-20.5,20.5c1.6,1.7,3,3.6,4,5.8c8.2-6.6,15.7-14.1,22.3-22.3
			C677.1,547.1,675.2,545.8,673.5,544.2z"/>
		<path id="XMLID_153_" class="st0" d="M438.4,481.2c-1.6,0.4-3.3,0.6-5,0.6c-0.7,0-1.3,0-2-0.1c1.6,10.6,4.4,20.8,8.2,30.5
			c1.9-1.4,4.1-2.4,6.3-3.1C442.5,500.3,439.9,490.9,438.4,481.2z"/>
		<path id="XMLID_154_" class="st0" d="M486.7,564.6c-7.5-6.1-14.4-12.9-20.5-20.5c-1.7,1.7-3.7,3-5.8,4
			c6.6,8.2,14.1,15.7,22.3,22.3C483.7,568.3,485,566.3,486.7,564.6z"/>
	</g>
</g>
</svg>
