<?xml version="1.0" encoding="utf-8"?>
<!-- Generator: Adobe Illustrator 19.0.0, SVG Export Plug-In . SVG Version: 6.00 Build 0)  -->
<svg version="1.1" id="Layer_1" xmlns="http://www.w3.org/2000/svg" xmlns:xlink="http://www.w3.org/1999/xlink" x="0px" y="0px"
	 viewBox="0 0 1369.1 932.6" style="enable-background:new 0 0 1369.1 932.6;" xml:space="preserve">
<style type="text/css">
	.st0{fill:url(#XMLID_16_);stroke:#000000;stroke-width:7.0629;stroke-miterlimit:10;}
	.st1{fill:url(#XMLID_17_);stroke:#000000;stroke-width:7.0629;stroke-miterlimit:10;}
	.st2{fill:url(#XMLID_18_);stroke:#000000;stroke-width:7.0629;stroke-miterlimit:10;}
	.st3{fill:url(#XMLID_19_);stroke:#000000;stroke-width:7.0629;stroke-miterlimit:10;}
	.st4{fill:url(#XMLID_20_);stroke:#000000;stroke-width:7.0629;stroke-miterlimit:10;}
	.st5{fill:url(#XMLID_21_);stroke:#000000;stroke-width:7.0629;stroke-miterlimit:10;}
	.st6{fill:url(#XMLID_22_);stroke:#000000;stroke-width:7.0629;stroke-miterlimit:10;}
	.st7{fill:url(#XMLID_23_);stroke:#000000;stroke-width:7.0629;stroke-miterlimit:10;}
	.st8{fill:url(#XMLID_24_);stroke:#000000;stroke-width:7.0629;stroke-miterlimit:10;}
	.st9{fill:url(#XMLID_25_);stroke:#000000;stroke-width:7.0629;stroke-miterlimit:10;}
	.st10{fill:url(#XMLID_26_);stroke:#000000;stroke-width:7.0629;stroke-miterlimit:10;}
	.st11{fill:url(#XMLID_27_);stroke:#000000;stroke-width:7.0629;stroke-miterlimit:10;}
	.st12{fill:url(#XMLID_28_);stroke:#000000;stroke-width:7.0629;stroke-miterlimit:10;}
	.st13{fill:url(#XMLID_30_);stroke:#000000;stroke-width:7.0629;stroke-miterlimit:10;}
	.st14{fill:url(#XMLID_32_);stroke:#000000;stroke-width:7.0629;stroke-miterlimit:10;}
	.st15{fill:url(#XMLID_33_);stroke:#000000;stroke-width:7.0629;stroke-miterlimit:10;}
	.st16{fill:url(#XMLID_34_);stroke:#000000;stroke-width:7.0629;stroke-miterlimit:10;}
	.st17{fill:url(#XMLID_35_);stroke:#000000;stroke-width:7.0629;stroke-miterlimit:10;}
	.st18{fill:url(#XMLID_36_);stroke:#000000;stroke-width:7.0629;stroke-miterlimit:10;}
	.st19{fill:url(#XMLID_98_);stroke:#000000;stroke-width:7.0629;stroke-miterlimit:10;}
	.st20{fill:url(#XMLID_99_);stroke:#000000;stroke-width:7.0629;stroke-miterlimit:10;}
	.st21{fill:url(#XMLID_100_);stroke:#000000;stroke-width:7.0629;stroke-miterlimit:10;}
	.st22{fill:url(#XMLID_101_);stroke:#000000;stroke-width:7.0629;stroke-miterlimit:10;}
	.st23{fill:url(#XMLID_102_);stroke:#000000;stroke-width:7.0629;stroke-miterlimit:10;}
	.st24{fill:url(#XMLID_103_);stroke:#000000;stroke-width:7.0629;stroke-miterlimit:10;}
	.st25{fill:url(#XMLID_104_);stroke:#000000;stroke-width:7.0629;stroke-miterlimit:10;}
	.st26{fill:url(#XMLID_105_);stroke:#000000;stroke-width:7.0629;stroke-miterlimit:10;}
	.st27{fill:url(#XMLID_106_);stroke:#000000;stroke-width:7.0629;stroke-miterlimit:10;}
	.st28{fill:url(#XMLID_107_);stroke:#000000;stroke-width:7.0629;stroke-miterlimit:10;}
	.st29{fill:url(#XMLID_108_);stroke:#000000;stroke-width:7.0629;stroke-miterlimit:10;}
	.st30{fill:url(#XMLID_109_);stroke:#000000;stroke-width:7.0629;stroke-miterlimit:10;}
	.st31{fill:url(#XMLID_112_);stroke:#000000;stroke-width:7.0629;stroke-miterlimit:10;}
	.st32{fill:url(#XMLID_113_);stroke:#000000;stroke-width:7.0629;stroke-miterlimit:10;}
	.st33{fill:url(#XMLID_114_);stroke:#000000;stroke-width:7.0629;stroke-miterlimit:10;}
	.st34{fill:url(#XMLID_115_);stroke:#000000;stroke-width:7.0629;stroke-miterlimit:10;}
	.st35{fill:url(#XMLID_121_);stroke:#000000;stroke-width:7.0629;stroke-miterlimit:10;}
</style>
<g id="XMLID_977_">
	<g id="XMLID_1_">
		<linearGradient id="XMLID_16_" gradientUnits="userSpaceOnUse" x1="978.221" y1="373.0502" x2="462.1483" y2="662.1115">
			<stop  offset="0" style="stop-color:#FF00FF"/>
			<stop  offset="0.2808" style="stop-color:#FF00B6"/>
			<stop  offset="1" style="stop-color:#FF0000"/>
		</linearGradient>
		<rect id="XMLID_1039_" x="878.6" y="377.4" class="st0" width="100.2" height="46.8"/>
		<linearGradient id="XMLID_17_" gradientUnits="userSpaceOnUse" x1="967.8448" y1="354.5252" x2="451.7721" y2="643.5865">
			<stop  offset="0" style="stop-color:#FF00FF"/>
			<stop  offset="0.2808" style="stop-color:#FF00B6"/>
			<stop  offset="1" style="stop-color:#FF0000"/>
		</linearGradient>
		<rect id="XMLID_1038_" x="863" y="361.8" class="st1" width="100.2" height="46.8"/>
		<linearGradient id="XMLID_18_" gradientUnits="userSpaceOnUse" x1="956.9447" y1="335.0648" x2="440.872" y2="624.126">
			<stop  offset="0" style="stop-color:#FF00FF"/>
			<stop  offset="0.2808" style="stop-color:#FF00B6"/>
			<stop  offset="1" style="stop-color:#FF0000"/>
		</linearGradient>
		<rect id="XMLID_1037_" x="846.6" y="345.4" class="st2" width="100.2" height="46.8"/>
		<g id="XMLID_1012_">
			<g id="XMLID_92_">
				<g id="XMLID_186_">
					<path id="XMLID_189_" d="M861.1,361.5c0.5-4.6,2.5-7.2,7.9-7.2c5.4,0,7.4,2.5,7.9,7.2c0.2,1.8,0.2,4.1,0.2,6.3
						c0,2.1,0,4.5-0.2,6.3c-0.5,4.7-2.5,7.2-7.9,7.2c-5.4,0-7.4-2.5-7.9-7.2c-0.2-1.8-0.2-4.1-0.2-6.3
						C860.9,365.6,860.9,363.3,861.1,361.5z M873.3,361.5c-0.2-2.7-1.3-3.8-4.4-3.8c-3,0-4.2,1.1-4.4,3.8c-0.1,2.1-0.2,4.1-0.2,6.3
						c0,2.1,0,4.1,0.2,6.3c0.2,2.7,1.3,3.8,4.4,3.8c3,0,4.2-1.1,4.4-3.8c0.1-2.1,0.2-4.1,0.2-6.3
						C873.5,365.6,873.5,363.7,873.3,361.5z"/>
					<path id="XMLID_187_" d="M886.3,354.7h3.2v0.7l-4.5,13.3h5.9v-8.3l0.4-0.4h2.9l0.4,0.4v8.3h2.5l0.4,0.4v2.8l-0.3,0.4h-2.5v8.2
						l-0.4,0.4h-2.9l-0.4-0.4v-8.2h-9.3l-0.4-0.4v-3.1l4.7-13.7L886.3,354.7z"/>
				</g>
			</g>
		</g>
	</g>
	<g id="XMLID_2_">
		<linearGradient id="XMLID_19_" gradientUnits="userSpaceOnUse" x1="1017.4023" y1="425.6747" x2="501.3296" y2="714.736">
			<stop  offset="0" style="stop-color:#FF00FF"/>
			<stop  offset="0.2808" style="stop-color:#FF00B6"/>
			<stop  offset="1" style="stop-color:#FF0000"/>
		</linearGradient>
		<rect id="XMLID_1036_" x="878.6" y="452" class="st3" width="100.2" height="46.8"/>
		<linearGradient id="XMLID_20_" gradientUnits="userSpaceOnUse" x1="1007.0262" y1="407.1497" x2="490.9535" y2="696.211">
			<stop  offset="0" style="stop-color:#FF00FF"/>
			<stop  offset="0.2808" style="stop-color:#FF00B6"/>
			<stop  offset="1" style="stop-color:#FF0000"/>
		</linearGradient>
		<rect id="XMLID_1035_" x="863" y="436.4" class="st4" width="100.2" height="46.8"/>
		<linearGradient id="XMLID_21_" gradientUnits="userSpaceOnUse" x1="996.126" y1="387.6893" x2="480.0533" y2="676.7505">
			<stop  offset="0" style="stop-color:#FF00FF"/>
			<stop  offset="0.2808" style="stop-color:#FF00B6"/>
			<stop  offset="1" style="stop-color:#FF0000"/>
		</linearGradient>
		<rect id="XMLID_1034_" x="846.6" y="420" class="st5" width="100.2" height="46.8"/>
		<g id="XMLID_995_">
			<g id="XMLID_84_">
				<path id="XMLID_85_" d="M859.5,437c0.5-4.6,2.5-7.2,7.9-7.2c5.4,0,7.4,2.5,7.9,7.2c0.2,1.8,0.2,4.1,0.2,6.3c0,2.1,0,4.5-0.2,6.3
					c-0.5,4.7-2.5,7.2-7.9,7.2c-5.4,0-7.4-2.5-7.9-7.2c-0.2-1.8-0.2-4.1-0.2-6.3C859.3,441.2,859.3,438.8,859.5,437z M871.7,437
					c-0.2-2.7-1.3-3.8-4.4-3.8c-3,0-4.2,1.1-4.4,3.8c-0.1,2.1-0.2,4.1-0.2,6.3c0,2.1,0,4.1,0.2,6.3c0.2,2.7,1.3,3.8,4.4,3.8
					c3,0,4.2-1.1,4.4-3.8c0.1-2.1,0.2-4.1,0.2-6.3C871.9,441.2,871.9,439.2,871.7,437z"/>
				<path id="XMLID_88_" d="M887.8,429.9c5,0,8.2,3.4,8.2,7.3c0,2.5-1.2,4.4-3.1,5.6c2.1,1.3,3.5,3.3,3.5,6.2c0,4.3-3.4,7.7-8.6,7.7
					c-5.2,0-8.6-3.4-8.6-7.7c0-2.9,1.4-4.9,3.5-6.2c-1.9-1.2-3.1-3.1-3.1-5.6C879.5,433.3,882.7,429.9,887.8,429.9z M887.8,453.3
					c2.9,0,5-1.6,5-4.3c0-2.9-2.1-4.5-5-4.5c-2.7,0-5,1.6-5,4.5C882.7,451.7,884.9,453.3,887.8,453.3z M887.8,441.3
					c2.9,0,4.7-1.5,4.7-4c0-2.3-1.8-3.9-4.7-3.9c-2.9,0-4.7,1.6-4.7,3.9C883.1,439.7,885.1,441.3,887.8,441.3z"/>
			</g>
		</g>
	</g>
	<g id="XMLID_1024_">
		<linearGradient id="XMLID_22_" gradientUnits="userSpaceOnUse" x1="871.2728" y1="181.5046" x2="355.2001" y2="470.5659">
			<stop  offset="0" style="stop-color:#FF00FF"/>
			<stop  offset="0.2808" style="stop-color:#FF00B6"/>
			<stop  offset="1" style="stop-color:#FF0000"/>
		</linearGradient>
		<rect id="XMLID_1028_" x="429.6" y="377.4" class="st6" width="100.2" height="46.8"/>
		<linearGradient id="XMLID_23_" gradientUnits="userSpaceOnUse" x1="860.8967" y1="162.9796" x2="344.8239" y2="452.0409">
			<stop  offset="0" style="stop-color:#FF00FF"/>
			<stop  offset="0.2808" style="stop-color:#FF00B6"/>
			<stop  offset="1" style="stop-color:#FF0000"/>
		</linearGradient>
		<rect id="XMLID_1027_" x="414" y="361.8" class="st7" width="100.2" height="46.8"/>
		<linearGradient id="XMLID_24_" gradientUnits="userSpaceOnUse" x1="849.9965" y1="143.5192" x2="333.9238" y2="432.5805">
			<stop  offset="0" style="stop-color:#FF00FF"/>
			<stop  offset="0.2808" style="stop-color:#FF00B6"/>
			<stop  offset="1" style="stop-color:#FF0000"/>
		</linearGradient>
		<rect id="XMLID_1026_" x="397.6" y="345.4" class="st8" width="100.2" height="46.8"/>
		<g id="XMLID_78_">
			<g id="XMLID_179_">
				<path id="XMLID_182_" d="M410.3,361.7c0.5-4.6,2.5-7.2,7.9-7.2c5.4,0,7.4,2.5,7.9,7.2c0.2,1.8,0.2,4.1,0.2,6.3
					c0,2.1,0,4.5-0.2,6.3c-0.5,4.7-2.5,7.2-7.9,7.2c-5.4,0-7.4-2.5-7.9-7.2c-0.2-1.8-0.2-4.1-0.2-6.3
					C410.1,365.9,410.1,363.5,410.3,361.7z M422.6,361.7c-0.2-2.7-1.3-3.8-4.4-3.8c-3,0-4.2,1.1-4.4,3.8c-0.1,2.1-0.2,4.1-0.2,6.3
					c0,2.1,0,4.1,0.2,6.3c0.2,2.7,1.3,3.8,4.4,3.8c3,0,4.2-1.1,4.4-3.8c0.1-2.1,0.2-4.1,0.2-6.3
					C422.7,365.9,422.7,363.9,422.6,361.7z"/>
				<path id="XMLID_180_" d="M436.6,354.9h3.6l0.4,0.4v22.2h5.7l0.4,0.4v2.9l-0.4,0.4h-15.4l-0.4-0.4v-2.9l0.4-0.4h6.1V360l-2.5,3.9
					l-0.4,0.4h-3.6v-0.7L436.6,354.9z"/>
			</g>
		</g>
	</g>
	<g id="XMLID_1019_">
		<linearGradient id="XMLID_25_" gradientUnits="userSpaceOnUse" x1="905.2892" y1="245.6575" x2="389.2166" y2="534.7187">
			<stop  offset="0" style="stop-color:#FF00FF"/>
			<stop  offset="0.2808" style="stop-color:#FF00B6"/>
			<stop  offset="1" style="stop-color:#FF0000"/>
		</linearGradient>
		<rect id="XMLID_1023_" x="578.2" y="377.4" class="st9" width="100.2" height="46.8"/>
		<linearGradient id="XMLID_26_" gradientUnits="userSpaceOnUse" x1="894.9131" y1="227.1325" x2="378.8404" y2="516.1937">
			<stop  offset="0" style="stop-color:#FF00FF"/>
			<stop  offset="0.2808" style="stop-color:#FF00B6"/>
			<stop  offset="1" style="stop-color:#FF0000"/>
		</linearGradient>
		<rect id="XMLID_1022_" x="562.6" y="361.8" class="st10" width="100.2" height="46.8"/>
		<linearGradient id="XMLID_27_" gradientUnits="userSpaceOnUse" x1="884.013" y1="207.6721" x2="367.9403" y2="496.7333">
			<stop  offset="0" style="stop-color:#FF00FF"/>
			<stop  offset="0.2808" style="stop-color:#FF00B6"/>
			<stop  offset="1" style="stop-color:#FF0000"/>
		</linearGradient>
		<rect id="XMLID_1021_" x="546.2" y="345.4" class="st11" width="100.2" height="46.8"/>
		<g id="XMLID_72_">
			<path id="XMLID_73_" d="M559.1,362.7c0.5-4.6,2.5-7.2,7.9-7.2c5.4,0,7.4,2.5,7.9,7.2c0.2,1.8,0.2,4.1,0.2,6.3
				c0,2.1,0,4.5-0.2,6.3c-0.5,4.7-2.5,7.2-7.9,7.2c-5.4,0-7.4-2.5-7.9-7.2c-0.2-1.8-0.2-4.1-0.2-6.3
				C558.9,366.8,558.9,364.5,559.1,362.7z M571.3,362.7c-0.2-2.7-1.3-3.8-4.4-3.8c-3,0-4.2,1.1-4.4,3.8c-0.1,2.1-0.2,4.1-0.2,6.3
				c0,2.1,0,4.1,0.2,6.3c0.2,2.7,1.3,3.8,4.4,3.8c3,0,4.2-1.1,4.4-3.8c0.1-2.1,0.2-4.1,0.2-6.3C571.5,366.8,571.5,364.8,571.3,362.7
				z"/>
			<path id="XMLID_76_" d="M579.7,363.4c0-4.7,3.4-7.9,7.9-7.9c4.3,0,8.1,3,8.1,7.9c0,3-1.8,5.4-3.4,6.8c-4.5,4.1-8.5,6.3-8.6,8.2
				h11.5l0.3,0.4v2.9l-0.3,0.4h-15.4l-0.4-0.4v-1.4c0-4.8,6.1-8.1,10.4-12.2c1.3-1.2,2.3-2.5,2.3-4.7c0-2.9-2.1-4.4-4.5-4.4
				s-4.3,1.6-4.3,4.4v0.7l-0.4,0.4H580l-0.4-0.4V363.4z"/>
		</g>
	</g>
	<g id="XMLID_1014_">
		<linearGradient id="XMLID_28_" gradientUnits="userSpaceOnUse" x1="942.6813" y1="308.9931" x2="426.6086" y2="598.0544">
			<stop  offset="0" style="stop-color:#FF00FF"/>
			<stop  offset="0.2808" style="stop-color:#FF00B6"/>
			<stop  offset="1" style="stop-color:#FF0000"/>
		</linearGradient>
		<rect id="XMLID_1018_" x="728.7" y="377.4" class="st12" width="100.2" height="46.8"/>
		<linearGradient id="XMLID_30_" gradientUnits="userSpaceOnUse" x1="932.3052" y1="290.4682" x2="416.2325" y2="579.5294">
			<stop  offset="0" style="stop-color:#FF00FF"/>
			<stop  offset="0.2808" style="stop-color:#FF00B6"/>
			<stop  offset="1" style="stop-color:#FF0000"/>
		</linearGradient>
		<rect id="XMLID_1017_" x="713.1" y="361.8" class="st13" width="100.2" height="46.8"/>
		<linearGradient id="XMLID_32_" gradientUnits="userSpaceOnUse" x1="921.405" y1="271.0078" x2="405.3324" y2="560.069">
			<stop  offset="0" style="stop-color:#FF00FF"/>
			<stop  offset="0.2808" style="stop-color:#FF00B6"/>
			<stop  offset="1" style="stop-color:#FF0000"/>
		</linearGradient>
		<rect id="XMLID_1016_" x="696.7" y="345.4" class="st14" width="100.2" height="46.8"/>
		<g id="XMLID_66_">
			<g id="XMLID_174_">
				<path id="XMLID_177_" d="M709.5,361c0.5-4.6,2.5-7.2,7.9-7.2c5.4,0,7.4,2.5,7.9,7.2c0.2,1.8,0.2,4.1,0.2,6.3
					c0,2.1,0,4.5-0.2,6.3c-0.5,4.7-2.5,7.2-7.9,7.2c-5.4,0-7.4-2.5-7.9-7.2c-0.2-1.8-0.2-4.1-0.2-6.3
					C709.3,365.1,709.3,362.8,709.5,361z M721.8,361c-0.2-2.7-1.3-3.8-4.4-3.8c-3,0-4.2,1.1-4.4,3.8c-0.1,2.1-0.2,4.1-0.2,6.3
					c0,2.1,0,4.1,0.2,6.3c0.2,2.7,1.3,3.8,4.4,3.8c3,0,4.2-1.1,4.4-3.8c0.1-2.1,0.2-4.1,0.2-6.3C721.9,365.1,721.9,363.2,721.8,361z
					"/>
				<path id="XMLID_175_" d="M745.8,357.8l-7.2,6.2c4.5,0.3,7.5,3.8,7.5,8.3c0,4.1-3.2,8.4-8.4,8.4c-5,0-8.4-3.9-8.4-8.2l0.4-0.4
					h2.9l0.3,0.4c0,2.7,2,4.8,4.9,4.8c2.9,0,4.8-2.3,4.8-5c0-3.2-2.5-5.2-5.6-5.2h-2.7l-0.4-0.4v-2.9l6.8-6.1h-10.8l-0.4-0.4v-2.9
					l0.4-0.4h15.4l0.4,0.4V357.8z"/>
			</g>
		</g>
	</g>
	<g id="XMLID_1007_">
		<linearGradient id="XMLID_33_" gradientUnits="userSpaceOnUse" x1="913.965" y1="232.1923" x2="397.8923" y2="521.2536">
			<stop  offset="0" style="stop-color:#FF00FF"/>
			<stop  offset="0.2808" style="stop-color:#FF00B6"/>
			<stop  offset="1" style="stop-color:#FF0000"/>
		</linearGradient>
		<rect id="XMLID_1011_" x="429.6" y="452" class="st15" width="100.2" height="46.8"/>
		<linearGradient id="XMLID_34_" gradientUnits="userSpaceOnUse" x1="903.5889" y1="213.6674" x2="387.5162" y2="502.7286">
			<stop  offset="0" style="stop-color:#FF00FF"/>
			<stop  offset="0.2808" style="stop-color:#FF00B6"/>
			<stop  offset="1" style="stop-color:#FF0000"/>
		</linearGradient>
		<rect id="XMLID_1010_" x="414" y="436.4" class="st16" width="100.2" height="46.8"/>
		<linearGradient id="XMLID_35_" gradientUnits="userSpaceOnUse" x1="892.6888" y1="194.2069" x2="376.6161" y2="483.2682">
			<stop  offset="0" style="stop-color:#FF00FF"/>
			<stop  offset="0.2808" style="stop-color:#FF00B6"/>
			<stop  offset="1" style="stop-color:#FF0000"/>
		</linearGradient>
		<rect id="XMLID_1009_" x="397.6" y="420" class="st17" width="100.2" height="46.8"/>
		<g id="XMLID_60_">
			<g id="XMLID_158_">
				<path id="XMLID_161_" d="M410.4,436.1c0.5-4.6,2.5-7.2,7.9-7.2c5.4,0,7.4,2.5,7.9,7.2c0.2,1.8,0.2,4.1,0.2,6.3
					c0,2.1,0,4.5-0.2,6.3c-0.5,4.7-2.5,7.2-7.9,7.2c-5.4,0-7.4-2.5-7.9-7.2c-0.2-1.8-0.2-4.1-0.2-6.3
					C410.2,440.2,410.2,437.9,410.4,436.1z M422.6,436.1c-0.2-2.7-1.3-3.8-4.4-3.8c-3,0-4.2,1.1-4.4,3.8c-0.1,2.1-0.2,4.1-0.2,6.3
					c0,2.1,0,4.1,0.2,6.3c0.2,2.7,1.3,3.8,4.4,3.8c3,0,4.2-1.1,4.4-3.8c0.1-2.1,0.2-4.1,0.2-6.3
					C422.8,440.2,422.8,438.3,422.6,436.1z"/>
				<path id="XMLID_159_" d="M438.3,437.9c5.4,0,9.2,3.4,9.2,9c0,5-3.8,9-8.8,9c-5,0-8.8-4.1-8.8-9l0.4-0.4h2.9l0.4,0.4
					c0,3,2.1,5.4,5.2,5.4c3,0,5.2-2.1,5.2-5.4c0-3.6-2.3-5.4-5.6-5.4h-5.6l-0.4-0.4l-1.4-3.2v-0.4l3-7.9l0.4-0.4H446l0.4,0.4v2.9
					l-0.4,0.4h-9.7l-2,5H438.3z"/>
			</g>
		</g>
	</g>
	<g id="XMLID_1002_">
		<linearGradient id="XMLID_36_" gradientUnits="userSpaceOnUse" x1="949.4278" y1="295.5054" x2="433.3551" y2="584.5666">
			<stop  offset="0" style="stop-color:#FF00FF"/>
			<stop  offset="0.2808" style="stop-color:#FF00B6"/>
			<stop  offset="1" style="stop-color:#FF0000"/>
		</linearGradient>
		<rect id="XMLID_1006_" x="578.2" y="452" class="st18" width="100.2" height="46.8"/>
		<linearGradient id="XMLID_98_" gradientUnits="userSpaceOnUse" x1="939.0516" y1="276.9804" x2="422.9789" y2="566.0416">
			<stop  offset="0" style="stop-color:#FF00FF"/>
			<stop  offset="0.2808" style="stop-color:#FF00B6"/>
			<stop  offset="1" style="stop-color:#FF0000"/>
		</linearGradient>
		<rect id="XMLID_1005_" x="562.6" y="436.4" class="st19" width="100.2" height="46.8"/>
		<linearGradient id="XMLID_99_" gradientUnits="userSpaceOnUse" x1="928.1515" y1="257.52" x2="412.0788" y2="546.5812">
			<stop  offset="0" style="stop-color:#FF00FF"/>
			<stop  offset="0.2808" style="stop-color:#FF00B6"/>
			<stop  offset="1" style="stop-color:#FF0000"/>
		</linearGradient>
		<rect id="XMLID_1004_" x="546.2" y="420" class="st20" width="100.2" height="46.8"/>
		<g id="XMLID_53_">
			<g id="XMLID_164_">
				<path id="XMLID_168_" d="M559,436.1c0.5-4.6,2.5-7.2,7.9-7.2c5.4,0,7.4,2.5,7.9,7.2c0.2,1.8,0.2,4.1,0.2,6.3
					c0,2.1,0,4.5-0.2,6.3c-0.5,4.7-2.5,7.2-7.9,7.2c-5.4,0-7.4-2.5-7.9-7.2c-0.2-1.8-0.2-4.1-0.2-6.3
					C558.9,440.2,558.9,437.9,559,436.1z M571.3,436.1c-0.2-2.7-1.3-3.8-4.4-3.8c-3,0-4.2,1.1-4.4,3.8c-0.1,2.1-0.2,4.1-0.2,6.3
					c0,2.1,0,4.1,0.2,6.3c0.2,2.7,1.3,3.8,4.4,3.8c3,0,4.2-1.1,4.4-3.8c0.1-2.1,0.2-4.1,0.2-6.3
					C571.5,440.2,571.4,438.2,571.3,436.1z"/>
				<path id="XMLID_165_" d="M579.2,436.4c0.8-4.5,4.2-7.5,8.5-7.5c4.3,0,7.7,2.9,7.7,7.2l-0.4,0.4h-2.9l-0.4-0.4
					c0-2.5-2-3.8-4.1-3.8c-2.7,0-4.3,1.4-5,4.1c-0.4,1.3-0.6,3.5-0.5,5c1.3-1.4,3.2-2.5,5.7-2.5c5.2,0,8.2,3.9,8.2,8.4
					s-3.2,8.4-8.4,8.4c-4.5,0-7.9-3.2-8.6-7.5c-0.3-1.4-0.4-4.3-0.4-5.9C578.7,440.7,579,437.9,579.2,436.4z M592.5,447.4
					c0-2.9-2-5-4.8-5s-5,1.9-5,5c0,2.7,2.2,5,5,5S592.5,450.2,592.5,447.4z"/>
			</g>
		</g>
	</g>
	<g id="XMLID_997_">
		<linearGradient id="XMLID_100_" gradientUnits="userSpaceOnUse" x1="982.0337" y1="361.5219" x2="465.961" y2="650.5831">
			<stop  offset="0" style="stop-color:#FF00FF"/>
			<stop  offset="0.2808" style="stop-color:#FF00B6"/>
			<stop  offset="1" style="stop-color:#FF0000"/>
		</linearGradient>
		<rect id="XMLID_1001_" x="728.7" y="452" class="st21" width="100.2" height="46.8"/>
		<linearGradient id="XMLID_101_" gradientUnits="userSpaceOnUse" x1="971.6575" y1="342.9969" x2="455.5848" y2="632.0581">
			<stop  offset="0" style="stop-color:#FF00FF"/>
			<stop  offset="0.2808" style="stop-color:#FF00B6"/>
			<stop  offset="1" style="stop-color:#FF0000"/>
		</linearGradient>
		<rect id="XMLID_1000_" x="713.1" y="436.4" class="st22" width="100.2" height="46.8"/>
		<linearGradient id="XMLID_102_" gradientUnits="userSpaceOnUse" x1="960.7574" y1="323.5365" x2="444.6847" y2="612.5977">
			<stop  offset="0" style="stop-color:#FF00FF"/>
			<stop  offset="0.2808" style="stop-color:#FF00B6"/>
			<stop  offset="1" style="stop-color:#FF0000"/>
		</linearGradient>
		<rect id="XMLID_999_" x="696.7" y="420" class="st23" width="100.2" height="46.8"/>
		<g id="XMLID_47_">
			<g id="XMLID_143_">
				<path id="XMLID_146_" d="M709.3,436.2c0.5-4.6,2.5-7.2,7.9-7.2c5.4,0,7.4,2.5,7.9,7.2c0.2,1.8,0.2,4.1,0.2,6.3
					c0,2.1,0,4.5-0.2,6.3c-0.5,4.7-2.5,7.2-7.9,7.2c-5.4,0-7.4-2.5-7.9-7.2c-0.2-1.8-0.2-4.1-0.2-6.3
					C709.2,440.3,709.2,438,709.3,436.2z M721.6,436.2c-0.2-2.7-1.3-3.8-4.4-3.8c-3,0-4.2,1.1-4.4,3.8c-0.1,2.1-0.2,4.1-0.2,6.3
					c0,2.1,0,4.1,0.2,6.3c0.2,2.7,1.3,3.8,4.4,3.8c3,0,4.2-1.1,4.4-3.8c0.1-2.1,0.2-4.1,0.2-6.3
					C721.8,440.3,721.7,438.3,721.6,436.2z"/>
				<path id="XMLID_144_" d="M745.7,432.6v0.4l-10,22.2l-0.4,0.4h-3.6v-0.7l10.2-21.8h-12l-0.4-0.4v-2.9l0.4-0.4h15l0.4,0.4
					L745.7,432.6z"/>
			</g>
		</g>
	</g>
	<g id="XMLID_990_">
		<linearGradient id="XMLID_103_" gradientUnits="userSpaceOnUse" x1="956.7513" y1="282.8011" x2="440.6786" y2="571.8624">
			<stop  offset="0" style="stop-color:#FF00FF"/>
			<stop  offset="0.2808" style="stop-color:#FF00B6"/>
			<stop  offset="1" style="stop-color:#FF0000"/>
		</linearGradient>
		<rect id="XMLID_994_" x="430" y="526.3" class="st24" width="100.2" height="46.8"/>
		<linearGradient id="XMLID_104_" gradientUnits="userSpaceOnUse" x1="946.3752" y1="264.2761" x2="430.3025" y2="553.3374">
			<stop  offset="0" style="stop-color:#FF00FF"/>
			<stop  offset="0.2808" style="stop-color:#FF00B6"/>
			<stop  offset="1" style="stop-color:#FF0000"/>
		</linearGradient>
		<rect id="XMLID_993_" x="414.4" y="510.7" class="st25" width="100.2" height="46.8"/>
		<linearGradient id="XMLID_105_" gradientUnits="userSpaceOnUse" x1="935.475" y1="244.8157" x2="419.4024" y2="533.877">
			<stop  offset="0" style="stop-color:#FF00FF"/>
			<stop  offset="0.2808" style="stop-color:#FF00B6"/>
			<stop  offset="1" style="stop-color:#FF0000"/>
		</linearGradient>
		<rect id="XMLID_992_" x="398" y="494.4" class="st26" width="100.2" height="46.8"/>
		<g id="XMLID_40_">
			<g id="XMLID_149_">
				<path id="XMLID_153_" d="M410.9,511.3c0.5-4.6,2.5-7.2,7.9-7.2c5.4,0,7.4,2.5,7.9,7.2c0.2,1.8,0.2,4.1,0.2,6.3s0,4.5-0.2,6.3
					c-0.5,4.7-2.5,7.2-7.9,7.2c-5.4,0-7.4-2.5-7.9-7.2c-0.2-1.8-0.2-4.1-0.2-6.3S410.7,513,410.9,511.3z M423.1,511.3
					c-0.2-2.7-1.3-3.8-4.4-3.8c-3,0-4.2,1.1-4.4,3.8c-0.1,2.1-0.2,4.1-0.2,6.3s0,4.1,0.2,6.3c0.2,2.7,1.3,3.8,4.4,3.8
					c3,0,4.2-1.1,4.4-3.8c0.1-2.1,0.2-4.1,0.2-6.3S423.3,513.4,423.1,511.3z"/>
				<path id="XMLID_150_" d="M447.1,523.4c-0.8,4.5-4.2,7.5-8.5,7.5c-4.3,0-7.7-2.9-7.7-7.2l0.4-0.4h2.9l0.4,0.4
					c0,2.5,2,3.8,4.1,3.8c2.7,0,4.3-1.4,5-4.1c0.4-1.3,0.6-3.5,0.5-5c-1.3,1.4-3.2,2.5-5.7,2.5c-5.2,0-8.2-3.9-8.2-8.4
					c0-4.5,3.2-8.4,8.4-8.4c4.5,0,7.9,3.2,8.6,7.5c0.3,1.4,0.4,4.3,0.4,5.9S447.4,522,447.1,523.4z M433.8,512.5c0,2.9,2,5,4.8,5
					s5-1.9,5-5c0-2.7-2.1-5-5-5S433.8,509.6,433.8,512.5z"/>
			</g>
		</g>
	</g>
	<g id="XMLID_985_">
		<linearGradient id="XMLID_106_" gradientUnits="userSpaceOnUse" x1="991.1288" y1="346.5906" x2="475.0561" y2="635.6519">
			<stop  offset="0" style="stop-color:#FF00FF"/>
			<stop  offset="0.2808" style="stop-color:#FF00B6"/>
			<stop  offset="1" style="stop-color:#FF0000"/>
		</linearGradient>
		<rect id="XMLID_989_" x="578.2" y="526.4" class="st27" width="100.2" height="46.8"/>
		<linearGradient id="XMLID_107_" gradientUnits="userSpaceOnUse" x1="980.7019" y1="327.9751" x2="464.6292" y2="617.0364">
			<stop  offset="0" style="stop-color:#FF00FF"/>
			<stop  offset="0.2808" style="stop-color:#FF00B6"/>
			<stop  offset="1" style="stop-color:#FF0000"/>
		</linearGradient>
		<rect id="XMLID_988_" x="562.6" y="510.7" class="st28" width="100.2" height="46.8"/>
		<linearGradient id="XMLID_108_" gradientUnits="userSpaceOnUse" x1="969.8018" y1="308.5147" x2="453.7291" y2="597.576">
			<stop  offset="0" style="stop-color:#FF00FF"/>
			<stop  offset="0.2808" style="stop-color:#FF00B6"/>
			<stop  offset="1" style="stop-color:#FF0000"/>
		</linearGradient>
		<rect id="XMLID_987_" x="546.2" y="494.3" class="st29" width="100.2" height="46.8"/>
		<g id="XMLID_14_">
			<g id="XMLID_135_">
				<path id="XMLID_139_" d="M566.6,503.8h3.6l0.4,0.4v22.2h5.7l0.4,0.4v2.9l-0.4,0.4h-15.4l-0.4-0.4v-2.9l0.4-0.4h6.1v-17.5
					l-2.5,3.9l-0.4,0.4h-3.6v-0.7L566.6,503.8z"/>
				<path id="XMLID_136_" d="M581.1,510.6c0.5-4.6,2.5-7.2,7.9-7.2c5.4,0,7.4,2.5,7.9,7.2c0.2,1.8,0.2,4.1,0.2,6.3s0,4.5-0.2,6.3
					c-0.5,4.7-2.5,7.2-7.9,7.2c-5.4,0-7.4-2.5-7.9-7.2c-0.2-1.8-0.2-4.1-0.2-6.3S580.9,512.4,581.1,510.6z M593.4,510.6
					c-0.2-2.7-1.3-3.8-4.4-3.8c-3,0-4.2,1.1-4.4,3.8c-0.1,2.1-0.2,4.1-0.2,6.3s0,4.1,0.2,6.3c0.2,2.7,1.3,3.8,4.4,3.8
					c3,0,4.2-1.1,4.4-3.8c0.1-2.1,0.2-4.1,0.2-6.3S593.5,512.7,593.4,510.6z"/>
			</g>
		</g>
	</g>
	<g id="XMLID_980_">
		<linearGradient id="XMLID_109_" gradientUnits="userSpaceOnUse" x1="1027.0619" y1="410.7435" x2="510.9892" y2="699.8047">
			<stop  offset="0" style="stop-color:#FF00FF"/>
			<stop  offset="0.2808" style="stop-color:#FF00B6"/>
			<stop  offset="1" style="stop-color:#FF0000"/>
		</linearGradient>
		<rect id="XMLID_984_" x="728.7" y="526.4" class="st30" width="100.2" height="46.8"/>
		<linearGradient id="XMLID_112_" gradientUnits="userSpaceOnUse" x1="1016.635" y1="392.128" x2="500.5623" y2="681.1892">
			<stop  offset="0" style="stop-color:#FF00FF"/>
			<stop  offset="0.2808" style="stop-color:#FF00B6"/>
			<stop  offset="1" style="stop-color:#FF0000"/>
		</linearGradient>
		<rect id="XMLID_983_" x="713.1" y="510.7" class="st31" width="100.2" height="46.8"/>
		<linearGradient id="XMLID_113_" gradientUnits="userSpaceOnUse" x1="1005.7349" y1="372.6676" x2="489.6622" y2="661.7288">
			<stop  offset="0" style="stop-color:#FF00FF"/>
			<stop  offset="0.2808" style="stop-color:#FF00B6"/>
			<stop  offset="1" style="stop-color:#FF0000"/>
		</linearGradient>
		<rect id="XMLID_982_" x="696.7" y="494.3" class="st32" width="100.2" height="46.8"/>
		<g id="XMLID_9_">
			<g id="XMLID_122_">
				<path id="XMLID_125_" d="M715.3,503.8h3.6l0.4,0.4v22.2h5.7l0.4,0.4v2.9l-0.4,0.4h-15.4l-0.4-0.4v-2.9l0.4-0.4h6.1v-17.5
					l-2.5,3.9l-0.4,0.4h-3.6v-0.7L715.3,503.8z"/>
				<path id="XMLID_123_" d="M735.7,503.8h3.6l0.4,0.4v22.2h5.7l0.4,0.4v2.9l-0.4,0.4H730l-0.4-0.4v-2.9l0.4-0.4h6.1v-17.5l-2.5,3.9
					l-0.4,0.4h-3.6v-0.7L735.7,503.8z"/>
			</g>
		</g>
	</g>
	<g id="XMLID_3_">
		<linearGradient id="XMLID_114_" gradientUnits="userSpaceOnUse" x1="1063.8895" y1="474.0791" x2="547.8168" y2="763.1404">
			<stop  offset="0" style="stop-color:#FF00FF"/>
			<stop  offset="0.2808" style="stop-color:#FF00B6"/>
			<stop  offset="1" style="stop-color:#FF0000"/>
		</linearGradient>
		<rect id="XMLID_1033_" x="878.6" y="526.4" class="st33" width="100.2" height="46.8"/>
		<linearGradient id="XMLID_115_" gradientUnits="userSpaceOnUse" x1="1053.4626" y1="455.4637" x2="537.39" y2="744.5249">
			<stop  offset="0" style="stop-color:#FF00FF"/>
			<stop  offset="0.2808" style="stop-color:#FF00B6"/>
			<stop  offset="1" style="stop-color:#FF0000"/>
		</linearGradient>
		<rect id="XMLID_1032_" x="863" y="510.7" class="st34" width="100.2" height="46.8"/>
		<linearGradient id="XMLID_121_" gradientUnits="userSpaceOnUse" x1="1042.5625" y1="436.0032" x2="526.4898" y2="725.0645">
			<stop  offset="0" style="stop-color:#FF00FF"/>
			<stop  offset="0.2808" style="stop-color:#FF00B6"/>
			<stop  offset="1" style="stop-color:#FF0000"/>
		</linearGradient>
		<rect id="XMLID_1031_" x="846.6" y="494.3" class="st35" width="100.2" height="46.8"/>
		<g id="XMLID_978_">
			<g id="XMLID_4_">
				<g id="XMLID_116_">
					<path id="XMLID_119_" d="M865.3,504h3.6l0.4,0.4v22.2h5.7l0.4,0.4v2.9l-0.4,0.4h-15.4l-0.4-0.4v-2.9l0.4-0.4h6.1V509l-2.5,3.9
						l-0.4,0.4h-3.6v-0.7L865.3,504z"/>
					<path id="XMLID_117_" d="M880,511.5c0-4.7,3.4-7.9,7.9-7.9c4.3,0,8.1,3,8.1,7.9c0,3-1.8,5.4-3.4,6.8c-4.5,4.1-8.5,6.3-8.6,8.2
						h11.5l0.3,0.4v2.9l-0.3,0.4H880l-0.4-0.4v-1.4c0-4.8,6.1-8.1,10.4-12.2c1.3-1.2,2.3-2.5,2.3-4.7c0-2.9-2.1-4.4-4.5-4.4
						s-4.3,1.6-4.3,4.4v0.7l-0.4,0.4h-2.9l-0.4-0.4V511.5z"/>
				</g>
			</g>
		</g>
	</g>
</g>
</svg>
