<?xml version="1.0" encoding="utf-8"?>
<!-- Generator: Adobe Illustrator 19.0.0, SVG Export Plug-In . SVG Version: 6.00 Build 0)  -->
<svg version="1.1" id="Layer_1" xmlns="http://www.w3.org/2000/svg" xmlns:xlink="http://www.w3.org/1999/xlink" x="0px" y="0px"
	 viewBox="773.1 271.3 588.3 234.9" style="enable-background:new 773.1 271.3 588.3 234.9;" xml:space="preserve">
<style type="text/css">
	.st0{fill:url(#XMLID_6_);stroke:#000000;stroke-width:7.0629;stroke-miterlimit:10;}
	.st1{fill:url(#XMLID_7_);stroke:#000000;stroke-width:7.0629;stroke-miterlimit:10;}
	.st2{fill:url(#XMLID_8_);stroke:#000000;stroke-width:7.0629;stroke-miterlimit:10;}
	.st3{fill:url(#XMLID_10_);stroke:#000000;stroke-width:7.0629;stroke-miterlimit:10;}
	.st4{fill:url(#XMLID_11_);stroke:#000000;stroke-width:7.0629;stroke-miterlimit:10;}
	.st5{fill:url(#XMLID_12_);stroke:#000000;stroke-width:7.0629;stroke-miterlimit:10;}
	.st6{fill:url(#XMLID_13_);stroke:#000000;stroke-width:7.0629;stroke-miterlimit:10;}
	.st7{fill:url(#XMLID_15_);stroke:#000000;stroke-width:7.0629;stroke-miterlimit:10;}
	.st8{fill:url(#XMLID_16_);stroke:#000000;stroke-width:7.0629;stroke-miterlimit:10;}
	.st9{fill:url(#XMLID_17_);stroke:#000000;stroke-width:7.0629;stroke-miterlimit:10;}
	.st10{fill:url(#XMLID_18_);stroke:#000000;stroke-width:7.0629;stroke-miterlimit:10;}
	.st11{fill:url(#XMLID_19_);stroke:#000000;stroke-width:7.0629;stroke-miterlimit:10;}
	.st12{fill:url(#XMLID_20_);stroke:#000000;stroke-width:7.0629;stroke-miterlimit:10;}
	.st13{fill:url(#XMLID_21_);stroke:#000000;stroke-width:7.0629;stroke-miterlimit:10;}
	.st14{fill:url(#XMLID_22_);stroke:#000000;stroke-width:7.0629;stroke-miterlimit:10;}
	.st15{fill:url(#XMLID_23_);stroke:#000000;stroke-width:7.0629;stroke-miterlimit:10;}
	.st16{fill:url(#XMLID_24_);stroke:#000000;stroke-width:7.0629;stroke-miterlimit:10;}
	.st17{fill:url(#XMLID_25_);stroke:#000000;stroke-width:7.0629;stroke-miterlimit:10;}
	.st18{fill:url(#XMLID_26_);stroke:#000000;stroke-width:7.0629;stroke-miterlimit:10;}
	.st19{fill:url(#XMLID_27_);stroke:#000000;stroke-width:7.0629;stroke-miterlimit:10;}
	.st20{fill:url(#XMLID_28_);stroke:#000000;stroke-width:7.0629;stroke-miterlimit:10;}
	.st21{fill:url(#XMLID_29_);stroke:#000000;stroke-width:7.0629;stroke-miterlimit:10;}
	.st22{fill:url(#XMLID_30_);stroke:#000000;stroke-width:7.0629;stroke-miterlimit:10;}
	.st23{fill:url(#XMLID_31_);stroke:#000000;stroke-width:7.0629;stroke-miterlimit:10;}
	.st24{fill:url(#XMLID_32_);stroke:#000000;stroke-width:7.0629;stroke-miterlimit:10;}
	.st25{fill:url(#XMLID_33_);stroke:#000000;stroke-width:7.0629;stroke-miterlimit:10;}
	.st26{fill:url(#XMLID_34_);stroke:#000000;stroke-width:7.0629;stroke-miterlimit:10;}
	.st27{fill:url(#XMLID_35_);stroke:#000000;stroke-width:7.0629;stroke-miterlimit:10;}
	.st28{fill:url(#XMLID_36_);stroke:#000000;stroke-width:7.0629;stroke-miterlimit:10;}
	.st29{fill:url(#XMLID_37_);stroke:#000000;stroke-width:7.0629;stroke-miterlimit:10;}
	.st30{fill:url(#XMLID_38_);stroke:#000000;stroke-width:7.0629;stroke-miterlimit:10;}
	.st31{fill:url(#XMLID_39_);stroke:#000000;stroke-width:7.0629;stroke-miterlimit:10;}
	.st32{fill:url(#XMLID_41_);stroke:#000000;stroke-width:7.0629;stroke-miterlimit:10;}
	.st33{fill:url(#XMLID_42_);stroke:#000000;stroke-width:7.0629;stroke-miterlimit:10;}
	.st34{fill:url(#XMLID_43_);stroke:#000000;stroke-width:7.0629;stroke-miterlimit:10;}
	.st35{fill:url(#XMLID_44_);stroke:#000000;stroke-width:7.0629;stroke-miterlimit:10;}
</style>
<g id="XMLID_977_">
	<g id="XMLID_1_">
		
			<linearGradient id="XMLID_6_" gradientUnits="userSpaceOnUse" x1="1357.2262" y1="488.3405" x2="841.1534" y2="199.2791" gradientTransform="matrix(1 0 0 -1 0 790.8)">
			<stop  offset="0" style="stop-color:#FF00FF"/>
			<stop  offset="0.2808" style="stop-color:#FF00B6"/>
			<stop  offset="1" style="stop-color:#FF0000"/>
		</linearGradient>
		<rect id="XMLID_1039_" x="1257.6" y="306.8" class="st0" width="100.2" height="46.8"/>
		
			<linearGradient id="XMLID_7_" gradientUnits="userSpaceOnUse" x1="1346.8496" y1="506.8662" x2="830.7769" y2="217.8049" gradientTransform="matrix(1 0 0 -1 0 790.8)">
			<stop  offset="0" style="stop-color:#FF00FF"/>
			<stop  offset="0.2808" style="stop-color:#FF00B6"/>
			<stop  offset="1" style="stop-color:#FF0000"/>
		</linearGradient>
		<rect id="XMLID_1038_" x="1242" y="291.2" class="st1" width="100.2" height="46.8"/>
		
			<linearGradient id="XMLID_8_" gradientUnits="userSpaceOnUse" x1="1335.9409" y1="526.342" x2="819.8682" y2="237.2808" gradientTransform="matrix(1 0 0 -1 0 790.8)">
			<stop  offset="0" style="stop-color:#FF00FF"/>
			<stop  offset="0.2808" style="stop-color:#FF00B6"/>
			<stop  offset="1" style="stop-color:#FF0000"/>
		</linearGradient>
		<rect id="XMLID_1037_" x="1225.6" y="274.8" class="st2" width="100.2" height="46.8"/>
		<g id="XMLID_1012_">
			<g id="XMLID_92_">
				<g id="XMLID_186_">
					<path id="XMLID_189_" d="M1240.1,290.9c0.5-4.6,2.5-7.2,7.9-7.2s7.4,2.5,7.9,7.2c0.2,1.8,0.2,4.1,0.2,6.3c0,2.1,0,4.5-0.2,6.3
						c-0.5,4.7-2.5,7.2-7.9,7.2s-7.4-2.5-7.9-7.2c-0.2-1.8-0.2-4.1-0.2-6.3C1239.9,295,1239.9,292.7,1240.1,290.9z M1252.3,290.9
						c-0.2-2.7-1.3-3.8-4.4-3.8c-3,0-4.2,1.1-4.4,3.8c-0.1,2.1-0.2,4.1-0.2,6.3c0,2.1,0,4.1,0.2,6.3c0.2,2.7,1.3,3.8,4.4,3.8
						c3,0,4.2-1.1,4.4-3.8c0.1-2.1,0.2-4.1,0.2-6.3S1252.5,293.1,1252.3,290.9z"/>
					<path id="XMLID_187_" d="M1265.3,284.1h3.2v0.7l-4.5,13.3h5.9v-8.3l0.4-0.4h2.9l0.4,0.4v8.3h2.5l0.4,0.4v2.8l-0.3,0.4h-2.5v8.2
						l-0.4,0.4h-2.9l-0.4-0.4v-8.2h-9.3l-0.4-0.4v-3.1l4.7-13.7L1265.3,284.1z"/>
				</g>
			</g>
		</g>
	</g>
	<g id="XMLID_2_">
		
			<linearGradient id="XMLID_10_" gradientUnits="userSpaceOnUse" x1="1396.42" y1="435.6937" x2="880.3473" y2="146.6323" gradientTransform="matrix(1 0 0 -1 0 790.8)">
			<stop  offset="0" style="stop-color:#FF00FF"/>
			<stop  offset="0.2808" style="stop-color:#FF00B6"/>
			<stop  offset="1" style="stop-color:#FF0000"/>
		</linearGradient>
		<rect id="XMLID_1036_" x="1257.6" y="381.4" class="st3" width="100.2" height="46.8"/>
		
			<linearGradient id="XMLID_11_" gradientUnits="userSpaceOnUse" x1="1386.0435" y1="454.2194" x2="869.9708" y2="165.1581" gradientTransform="matrix(1 0 0 -1 0 790.8)">
			<stop  offset="0" style="stop-color:#FF00FF"/>
			<stop  offset="0.2808" style="stop-color:#FF00B6"/>
			<stop  offset="1" style="stop-color:#FF0000"/>
		</linearGradient>
		<rect id="XMLID_1035_" x="1242" y="365.8" class="st4" width="100.2" height="46.8"/>
		
			<linearGradient id="XMLID_12_" gradientUnits="userSpaceOnUse" x1="1375.1346" y1="473.6951" x2="859.062" y2="184.634" gradientTransform="matrix(1 0 0 -1 0 790.8)">
			<stop  offset="0" style="stop-color:#FF00FF"/>
			<stop  offset="0.2808" style="stop-color:#FF00B6"/>
			<stop  offset="1" style="stop-color:#FF0000"/>
		</linearGradient>
		<rect id="XMLID_1034_" x="1225.6" y="349.4" class="st5" width="100.2" height="46.8"/>
		<g id="XMLID_995_">
			<g id="XMLID_84_">
				<path id="XMLID_85_" d="M1238.5,366.4c0.5-4.6,2.5-7.2,7.9-7.2s7.4,2.5,7.9,7.2c0.2,1.8,0.2,4.1,0.2,6.3c0,2.1,0,4.5-0.2,6.3
					c-0.5,4.7-2.5,7.2-7.9,7.2s-7.4-2.5-7.9-7.2c-0.2-1.8-0.2-4.1-0.2-6.3C1238.3,370.6,1238.3,368.2,1238.5,366.4z M1250.7,366.4
					c-0.2-2.7-1.3-3.8-4.4-3.8c-3,0-4.2,1.1-4.4,3.8c-0.1,2.1-0.2,4.1-0.2,6.3c0,2.1,0,4.1,0.2,6.3c0.2,2.7,1.3,3.8,4.4,3.8
					c3,0,4.2-1.1,4.4-3.8c0.1-2.1,0.2-4.1,0.2-6.3C1250.9,370.6,1250.9,368.6,1250.7,366.4z"/>
				<path id="XMLID_88_" d="M1266.8,359.3c5,0,8.2,3.4,8.2,7.3c0,2.5-1.2,4.4-3.1,5.6c2.1,1.3,3.5,3.3,3.5,6.2
					c0,4.3-3.4,7.7-8.6,7.7c-5.2,0-8.6-3.4-8.6-7.7c0-2.9,1.4-4.9,3.5-6.2c-1.9-1.2-3.1-3.1-3.1-5.6
					C1258.5,362.7,1261.7,359.3,1266.8,359.3z M1266.8,382.7c2.9,0,5-1.6,5-4.3c0-2.9-2.1-4.5-5-4.5c-2.7,0-5,1.6-5,4.5
					C1261.7,381.1,1263.9,382.7,1266.8,382.7z M1266.8,370.7c2.9,0,4.7-1.5,4.7-4c0-2.3-1.8-3.9-4.7-3.9s-4.7,1.6-4.7,3.9
					C1262.1,369.1,1264.1,370.7,1266.8,370.7z"/>
			</g>
		</g>
	</g>
	<g id="XMLID_1024_">
		
			<linearGradient id="XMLID_13_" gradientUnits="userSpaceOnUse" x1="1250.2595" y1="679.9193" x2="734.1867" y2="390.858" gradientTransform="matrix(1 0 0 -1 0 790.8)">
			<stop  offset="0" style="stop-color:#FF00FF"/>
			<stop  offset="0.2808" style="stop-color:#FF00B6"/>
			<stop  offset="1" style="stop-color:#FF0000"/>
		</linearGradient>
		<rect id="XMLID_1028_" x="808.6" y="306.8" class="st6" width="100.2" height="46.8"/>
		
			<linearGradient id="XMLID_15_" gradientUnits="userSpaceOnUse" x1="1239.8829" y1="698.445" x2="723.8101" y2="409.3837" gradientTransform="matrix(1 0 0 -1 0 790.8)">
			<stop  offset="0" style="stop-color:#FF00FF"/>
			<stop  offset="0.2808" style="stop-color:#FF00B6"/>
			<stop  offset="1" style="stop-color:#FF0000"/>
		</linearGradient>
		<rect id="XMLID_1027_" x="793" y="291.2" class="st7" width="100.2" height="46.8"/>
		
			<linearGradient id="XMLID_16_" gradientUnits="userSpaceOnUse" x1="1228.9741" y1="717.9208" x2="712.9014" y2="428.8594" gradientTransform="matrix(1 0 0 -1 0 790.8)">
			<stop  offset="0" style="stop-color:#FF00FF"/>
			<stop  offset="0.2808" style="stop-color:#FF00B6"/>
			<stop  offset="1" style="stop-color:#FF0000"/>
		</linearGradient>
		<rect id="XMLID_1026_" x="776.6" y="274.8" class="st8" width="100.2" height="46.8"/>
		<g id="XMLID_78_">
			<g id="XMLID_179_">
				<path id="XMLID_182_" d="M789.3,291.1c0.5-4.6,2.5-7.2,7.9-7.2c5.4,0,7.4,2.5,7.9,7.2c0.2,1.8,0.2,4.1,0.2,6.3
					c0,2.1,0,4.5-0.2,6.3c-0.5,4.7-2.5,7.2-7.9,7.2c-5.4,0-7.4-2.5-7.9-7.2c-0.2-1.8-0.2-4.1-0.2-6.3
					C789.1,295.3,789.1,292.9,789.3,291.1z M801.6,291.1c-0.2-2.7-1.3-3.8-4.4-3.8c-3,0-4.2,1.1-4.4,3.8c-0.1,2.1-0.2,4.1-0.2,6.3
					c0,2.1,0,4.1,0.2,6.3c0.2,2.7,1.3,3.8,4.4,3.8c3,0,4.2-1.1,4.4-3.8c0.1-2.1,0.2-4.1,0.2-6.3
					C801.7,295.3,801.7,293.3,801.6,291.1z"/>
				<path id="XMLID_180_" d="M815.6,284.3h3.6l0.4,0.4v22.2h5.7l0.4,0.4v2.9l-0.4,0.4h-15.4l-0.4-0.4v-2.9l0.4-0.4h6.1v-17.5
					l-2.5,3.9l-0.4,0.4h-3.6V293L815.6,284.3z"/>
			</g>
		</g>
	</g>
	<g id="XMLID_1019_">
		
			<linearGradient id="XMLID_17_" gradientUnits="userSpaceOnUse" x1="1284.2875" y1="615.7455" x2="768.2149" y2="326.6844" gradientTransform="matrix(1 0 0 -1 0 790.8)">
			<stop  offset="0" style="stop-color:#FF00FF"/>
			<stop  offset="0.2808" style="stop-color:#FF00B6"/>
			<stop  offset="1" style="stop-color:#FF0000"/>
		</linearGradient>
		<rect id="XMLID_1023_" x="957.2" y="306.8" class="st9" width="100.2" height="46.8"/>
		
			<linearGradient id="XMLID_18_" gradientUnits="userSpaceOnUse" x1="1273.911" y1="634.2712" x2="757.8383" y2="345.2101" gradientTransform="matrix(1 0 0 -1 0 790.8)">
			<stop  offset="0" style="stop-color:#FF00FF"/>
			<stop  offset="0.2808" style="stop-color:#FF00B6"/>
			<stop  offset="1" style="stop-color:#FF0000"/>
		</linearGradient>
		<rect id="XMLID_1022_" x="941.6" y="291.2" class="st10" width="100.2" height="46.8"/>
		
			<linearGradient id="XMLID_19_" gradientUnits="userSpaceOnUse" x1="1263.0023" y1="653.747" x2="746.9296" y2="364.6858" gradientTransform="matrix(1 0 0 -1 0 790.8)">
			<stop  offset="0" style="stop-color:#FF00FF"/>
			<stop  offset="0.2808" style="stop-color:#FF00B6"/>
			<stop  offset="1" style="stop-color:#FF0000"/>
		</linearGradient>
		<rect id="XMLID_1021_" x="925.2" y="274.8" class="st11" width="100.2" height="46.8"/>
		<g id="XMLID_72_">
			<path id="XMLID_73_" d="M938.1,292.1c0.5-4.6,2.5-7.2,7.9-7.2s7.4,2.5,7.9,7.2c0.2,1.8,0.2,4.1,0.2,6.3c0,2.1,0,4.5-0.2,6.3
				c-0.5,4.7-2.5,7.2-7.9,7.2s-7.4-2.5-7.9-7.2c-0.2-1.8-0.2-4.1-0.2-6.3C937.9,296.2,937.9,293.9,938.1,292.1z M950.3,292.1
				c-0.2-2.7-1.3-3.8-4.4-3.8c-3,0-4.2,1.1-4.4,3.8c-0.1,2.1-0.2,4.1-0.2,6.3c0,2.1,0,4.1,0.2,6.3c0.2,2.7,1.3,3.8,4.4,3.8
				c3,0,4.2-1.1,4.4-3.8c0.1-2.1,0.2-4.1,0.2-6.3C950.5,296.2,950.5,294.2,950.3,292.1z"/>
			<path id="XMLID_76_" d="M958.7,292.8c0-4.7,3.4-7.9,7.9-7.9c4.3,0,8.1,3,8.1,7.9c0,3-1.8,5.4-3.4,6.8c-4.5,4.1-8.5,6.3-8.6,8.2
				h11.5l0.3,0.4v2.9l-0.3,0.4h-15.4l-0.4-0.4v-1.4c0-4.8,6.1-8.1,10.4-12.2c1.3-1.2,2.3-2.5,2.3-4.7c0-2.9-2.1-4.4-4.5-4.4
				s-4.3,1.6-4.3,4.4v0.7l-0.4,0.4H959l-0.4-0.4v-0.7H958.7z"/>
		</g>
	</g>
	<g id="XMLID_1014_">
		
			<linearGradient id="XMLID_20_" gradientUnits="userSpaceOnUse" x1="1321.6873" y1="552.3962" x2="805.6147" y2="263.3349" gradientTransform="matrix(1 0 0 -1 0 790.8)">
			<stop  offset="0" style="stop-color:#FF00FF"/>
			<stop  offset="0.2808" style="stop-color:#FF00B6"/>
			<stop  offset="1" style="stop-color:#FF0000"/>
		</linearGradient>
		<rect id="XMLID_1018_" x="1107.7" y="306.8" class="st12" width="100.2" height="46.8"/>
		
			<linearGradient id="XMLID_21_" gradientUnits="userSpaceOnUse" x1="1311.3107" y1="570.9219" x2="795.2381" y2="281.8607" gradientTransform="matrix(1 0 0 -1 0 790.8)">
			<stop  offset="0" style="stop-color:#FF00FF"/>
			<stop  offset="0.2808" style="stop-color:#FF00B6"/>
			<stop  offset="1" style="stop-color:#FF0000"/>
		</linearGradient>
		<rect id="XMLID_1017_" x="1092.1" y="291.2" class="st13" width="100.2" height="46.8"/>
		
			<linearGradient id="XMLID_22_" gradientUnits="userSpaceOnUse" x1="1300.402" y1="590.3976" x2="784.3293" y2="301.3364" gradientTransform="matrix(1 0 0 -1 0 790.8)">
			<stop  offset="0" style="stop-color:#FF00FF"/>
			<stop  offset="0.2808" style="stop-color:#FF00B6"/>
			<stop  offset="1" style="stop-color:#FF0000"/>
		</linearGradient>
		<rect id="XMLID_1016_" x="1075.7" y="274.8" class="st14" width="100.2" height="46.8"/>
		<g id="XMLID_66_">
			<g id="XMLID_174_">
				<path id="XMLID_177_" d="M1088.5,290.4c0.5-4.6,2.5-7.2,7.9-7.2s7.4,2.5,7.9,7.2c0.2,1.8,0.2,4.1,0.2,6.3c0,2.1,0,4.5-0.2,6.3
					c-0.5,4.7-2.5,7.2-7.9,7.2s-7.4-2.5-7.9-7.2c-0.2-1.8-0.2-4.1-0.2-6.3S1088.3,292.2,1088.5,290.4z M1100.8,290.4
					c-0.2-2.7-1.3-3.8-4.4-3.8c-3,0-4.2,1.1-4.4,3.8c-0.1,2.1-0.2,4.1-0.2,6.3c0,2.1,0,4.1,0.2,6.3c0.2,2.7,1.3,3.8,4.4,3.8
					c3,0,4.2-1.1,4.4-3.8c0.1-2.1,0.2-4.1,0.2-6.3C1100.9,294.5,1100.9,292.6,1100.8,290.4z"/>
				<path id="XMLID_175_" d="M1124.8,287.2l-7.2,6.2c4.5,0.3,7.5,3.8,7.5,8.3c0,4.1-3.2,8.4-8.4,8.4c-5,0-8.4-3.9-8.4-8.2l0.4-0.4
					h2.9l0.3,0.4c0,2.7,2,4.8,4.9,4.8s4.8-2.3,4.8-5c0-3.2-2.5-5.2-5.6-5.2h-2.7l-0.4-0.4v-2.9l6.8-6.1h-10.8l-0.4-0.4v-2.9l0.4-0.4
					h15.4l0.4,0.4L1124.8,287.2L1124.8,287.2z"/>
			</g>
		</g>
	</g>
	<g id="XMLID_1007_">
		
			<linearGradient id="XMLID_23_" gradientUnits="userSpaceOnUse" x1="1292.9515" y1="629.2318" x2="776.8788" y2="340.1706" gradientTransform="matrix(1 0 0 -1 0 790.8)">
			<stop  offset="0" style="stop-color:#FF00FF"/>
			<stop  offset="0.2808" style="stop-color:#FF00B6"/>
			<stop  offset="1" style="stop-color:#FF0000"/>
		</linearGradient>
		<rect id="XMLID_1011_" x="808.6" y="381.4" class="st15" width="100.2" height="46.8"/>
		
			<linearGradient id="XMLID_24_" gradientUnits="userSpaceOnUse" x1="1282.575" y1="647.7575" x2="766.5022" y2="358.6963" gradientTransform="matrix(1 0 0 -1 0 790.8)">
			<stop  offset="0" style="stop-color:#FF00FF"/>
			<stop  offset="0.2808" style="stop-color:#FF00B6"/>
			<stop  offset="1" style="stop-color:#FF0000"/>
		</linearGradient>
		<rect id="XMLID_1010_" x="793" y="365.8" class="st16" width="100.2" height="46.8"/>
		
			<linearGradient id="XMLID_25_" gradientUnits="userSpaceOnUse" x1="1271.6663" y1="667.2334" x2="755.5936" y2="378.1721" gradientTransform="matrix(1 0 0 -1 0 790.8)">
			<stop  offset="0" style="stop-color:#FF00FF"/>
			<stop  offset="0.2808" style="stop-color:#FF00B6"/>
			<stop  offset="1" style="stop-color:#FF0000"/>
		</linearGradient>
		<rect id="XMLID_1009_" x="776.6" y="349.4" class="st17" width="100.2" height="46.8"/>
		<g id="XMLID_60_">
			<g id="XMLID_158_">
				<path id="XMLID_161_" d="M789.4,365.5c0.5-4.6,2.5-7.2,7.9-7.2c5.4,0,7.4,2.5,7.9,7.2c0.2,1.8,0.2,4.1,0.2,6.3
					c0,2.1,0,4.5-0.2,6.3c-0.5,4.7-2.5,7.2-7.9,7.2c-5.4,0-7.4-2.5-7.9-7.2c-0.2-1.8-0.2-4.1-0.2-6.3
					C789.2,369.6,789.2,367.3,789.4,365.5z M801.6,365.5c-0.2-2.7-1.3-3.8-4.4-3.8c-3,0-4.2,1.1-4.4,3.8c-0.1,2.1-0.2,4.1-0.2,6.3
					c0,2.1,0,4.1,0.2,6.3c0.2,2.7,1.3,3.8,4.4,3.8c3,0,4.2-1.1,4.4-3.8c0.1-2.1,0.2-4.1,0.2-6.3S801.8,367.7,801.6,365.5z"/>
				<path id="XMLID_159_" d="M817.3,367.3c5.4,0,9.2,3.4,9.2,9c0,5-3.8,9-8.8,9s-8.8-4.1-8.8-9l0.4-0.4h2.9l0.4,0.4
					c0,3,2.1,5.4,5.2,5.4c3,0,5.2-2.1,5.2-5.4c0-3.6-2.3-5.4-5.6-5.4h-5.6l-0.4-0.4l-1.4-3.2v-0.4l3-7.9l0.4-0.4H825l0.4,0.4v2.9
					l-0.4,0.4h-9.7l-2,5H817.3z"/>
			</g>
		</g>
	</g>
	<g id="XMLID_1002_">
		
			<linearGradient id="XMLID_26_" gradientUnits="userSpaceOnUse" x1="1328.4386" y1="565.8752" x2="812.3659" y2="276.8141" gradientTransform="matrix(1 0 0 -1 0 790.8)">
			<stop  offset="0" style="stop-color:#FF00FF"/>
			<stop  offset="0.2808" style="stop-color:#FF00B6"/>
			<stop  offset="1" style="stop-color:#FF0000"/>
		</linearGradient>
		<rect id="XMLID_1006_" x="957.2" y="381.4" class="st18" width="100.2" height="46.8"/>
		
			<linearGradient id="XMLID_27_" gradientUnits="userSpaceOnUse" x1="1318.062" y1="584.401" x2="801.9893" y2="295.3398" gradientTransform="matrix(1 0 0 -1 0 790.8)">
			<stop  offset="0" style="stop-color:#FF00FF"/>
			<stop  offset="0.2808" style="stop-color:#FF00B6"/>
			<stop  offset="1" style="stop-color:#FF0000"/>
		</linearGradient>
		<rect id="XMLID_1005_" x="941.6" y="365.8" class="st19" width="100.2" height="46.8"/>
		
			<linearGradient id="XMLID_28_" gradientUnits="userSpaceOnUse" x1="1307.1533" y1="603.8768" x2="791.0806" y2="314.8156" gradientTransform="matrix(1 0 0 -1 0 790.8)">
			<stop  offset="0" style="stop-color:#FF00FF"/>
			<stop  offset="0.2808" style="stop-color:#FF00B6"/>
			<stop  offset="1" style="stop-color:#FF0000"/>
		</linearGradient>
		<rect id="XMLID_1004_" x="925.2" y="349.4" class="st20" width="100.2" height="46.8"/>
		<g id="XMLID_53_">
			<g id="XMLID_164_">
				<path id="XMLID_168_" d="M938,365.5c0.5-4.6,2.5-7.2,7.9-7.2s7.4,2.5,7.9,7.2c0.2,1.8,0.2,4.1,0.2,6.3c0,2.1,0,4.5-0.2,6.3
					c-0.5,4.7-2.5,7.2-7.9,7.2s-7.4-2.5-7.9-7.2c-0.2-1.8-0.2-4.1-0.2-6.3C937.9,369.6,937.9,367.3,938,365.5z M950.3,365.5
					c-0.2-2.7-1.3-3.8-4.4-3.8c-3,0-4.2,1.1-4.4,3.8c-0.1,2.1-0.2,4.1-0.2,6.3c0,2.1,0,4.1,0.2,6.3c0.2,2.7,1.3,3.8,4.4,3.8
					c3,0,4.2-1.1,4.4-3.8c0.1-2.1,0.2-4.1,0.2-6.3S950.4,367.6,950.3,365.5z"/>
				<path id="XMLID_165_" d="M958.2,365.8c0.8-4.5,4.2-7.5,8.5-7.5s7.7,2.9,7.7,7.2l-0.4,0.4h-2.9l-0.4-0.4c0-2.5-2-3.8-4.1-3.8
					c-2.7,0-4.3,1.4-5,4.1c-0.4,1.3-0.6,3.5-0.5,5c1.3-1.4,3.2-2.5,5.7-2.5c5.2,0,8.2,3.9,8.2,8.4s-3.2,8.4-8.4,8.4
					c-4.5,0-7.9-3.2-8.6-7.5c-0.3-1.4-0.4-4.3-0.4-5.9C957.7,370.1,958,367.3,958.2,365.8z M971.5,376.8c0-2.9-2-5-4.8-5s-5,1.9-5,5
					c0,2.7,2.2,5,5,5S971.5,379.6,971.5,376.8z"/>
			</g>
		</g>
	</g>
	<g id="XMLID_997_">
		
			<linearGradient id="XMLID_29_" gradientUnits="userSpaceOnUse" x1="1361.0522" y1="499.8451" x2="844.9795" y2="210.7839" gradientTransform="matrix(1 0 0 -1 0 790.8)">
			<stop  offset="0" style="stop-color:#FF00FF"/>
			<stop  offset="0.2808" style="stop-color:#FF00B6"/>
			<stop  offset="1" style="stop-color:#FF0000"/>
		</linearGradient>
		<rect id="XMLID_1001_" x="1107.7" y="381.4" class="st21" width="100.2" height="46.8"/>
		
			<linearGradient id="XMLID_30_" gradientUnits="userSpaceOnUse" x1="1350.6755" y1="518.3708" x2="834.6029" y2="229.3096" gradientTransform="matrix(1 0 0 -1 0 790.8)">
			<stop  offset="0" style="stop-color:#FF00FF"/>
			<stop  offset="0.2808" style="stop-color:#FF00B6"/>
			<stop  offset="1" style="stop-color:#FF0000"/>
		</linearGradient>
		<rect id="XMLID_1000_" x="1092.1" y="365.8" class="st22" width="100.2" height="46.8"/>
		
			<linearGradient id="XMLID_31_" gradientUnits="userSpaceOnUse" x1="1339.7668" y1="537.8466" x2="823.6942" y2="248.7854" gradientTransform="matrix(1 0 0 -1 0 790.8)">
			<stop  offset="0" style="stop-color:#FF00FF"/>
			<stop  offset="0.2808" style="stop-color:#FF00B6"/>
			<stop  offset="1" style="stop-color:#FF0000"/>
		</linearGradient>
		<rect id="XMLID_999_" x="1075.7" y="349.4" class="st23" width="100.2" height="46.8"/>
		<g id="XMLID_47_">
			<g id="XMLID_143_">
				<path id="XMLID_146_" d="M1088.3,365.6c0.5-4.6,2.5-7.2,7.9-7.2s7.4,2.5,7.9,7.2c0.2,1.8,0.2,4.1,0.2,6.3c0,2.1,0,4.5-0.2,6.3
					c-0.5,4.7-2.5,7.2-7.9,7.2s-7.4-2.5-7.9-7.2c-0.2-1.8-0.2-4.1-0.2-6.3C1088.2,369.7,1088.2,367.4,1088.3,365.6z M1100.6,365.6
					c-0.2-2.7-1.3-3.8-4.4-3.8c-3,0-4.2,1.1-4.4,3.8c-0.1,2.1-0.2,4.1-0.2,6.3c0,2.1,0,4.1,0.2,6.3c0.2,2.7,1.3,3.8,4.4,3.8
					c3,0,4.2-1.1,4.4-3.8c0.1-2.1,0.2-4.1,0.2-6.3C1100.8,369.7,1100.7,367.7,1100.6,365.6z"/>
				<path id="XMLID_144_" d="M1124.7,362v0.4l-10,22.2l-0.4,0.4h-3.6v-0.7l10.2-21.8h-12l-0.4-0.4v-2.9l0.4-0.4h15l0.4,0.4
					L1124.7,362z"/>
			</g>
		</g>
	</g>
	<g id="XMLID_990_">
		
			<linearGradient id="XMLID_32_" gradientUnits="userSpaceOnUse" x1="1335.7164" y1="578.6612" x2="819.6437" y2="289.5999" gradientTransform="matrix(1 0 0 -1 0 790.8)">
			<stop  offset="0" style="stop-color:#FF00FF"/>
			<stop  offset="0.2808" style="stop-color:#FF00B6"/>
			<stop  offset="1" style="stop-color:#FF0000"/>
		</linearGradient>
		<rect id="XMLID_994_" x="809" y="455.7" class="st24" width="100.2" height="46.8"/>
		
			<linearGradient id="XMLID_33_" gradientUnits="userSpaceOnUse" x1="1325.3398" y1="597.187" x2="809.2672" y2="308.1256" gradientTransform="matrix(1 0 0 -1 0 790.8)">
			<stop  offset="0" style="stop-color:#FF00FF"/>
			<stop  offset="0.2808" style="stop-color:#FF00B6"/>
			<stop  offset="1" style="stop-color:#FF0000"/>
		</linearGradient>
		<rect id="XMLID_993_" x="793.4" y="440.1" class="st25" width="100.2" height="46.8"/>
		
			<linearGradient id="XMLID_34_" gradientUnits="userSpaceOnUse" x1="1314.4738" y1="616.5865" x2="798.4011" y2="327.5253" gradientTransform="matrix(1 0 0 -1 0 790.8)">
			<stop  offset="0" style="stop-color:#FF00FF"/>
			<stop  offset="0.2808" style="stop-color:#FF00B6"/>
			<stop  offset="1" style="stop-color:#FF0000"/>
		</linearGradient>
		<rect id="XMLID_992_" x="777" y="423.8" class="st26" width="100.2" height="46.8"/>
		<g id="XMLID_40_">
			<g id="XMLID_149_">
				<path id="XMLID_153_" d="M789.9,440.7c0.5-4.6,2.5-7.2,7.9-7.2c5.4,0,7.4,2.5,7.9,7.2c0.2,1.8,0.2,4.1,0.2,6.3s0,4.5-0.2,6.3
					c-0.5,4.7-2.5,7.2-7.9,7.2c-5.4,0-7.4-2.5-7.9-7.2c-0.2-1.8-0.2-4.1-0.2-6.3S789.7,442.4,789.9,440.7z M802.1,440.7
					c-0.2-2.7-1.3-3.8-4.4-3.8c-3,0-4.2,1.1-4.4,3.8c-0.1,2.1-0.2,4.1-0.2,6.3s0,4.1,0.2,6.3c0.2,2.7,1.3,3.8,4.4,3.8
					c3,0,4.2-1.1,4.4-3.8c0.1-2.1,0.2-4.1,0.2-6.3S802.3,442.8,802.1,440.7z"/>
				<path id="XMLID_150_" d="M826.1,452.8c-0.8,4.5-4.2,7.5-8.5,7.5s-7.7-2.9-7.7-7.2l0.4-0.4h2.9l0.4,0.4c0,2.5,2,3.8,4.1,3.8
					c2.7,0,4.3-1.4,5-4.1c0.4-1.3,0.6-3.5,0.5-5c-1.3,1.4-3.2,2.5-5.7,2.5c-5.2,0-8.2-3.9-8.2-8.4s3.2-8.4,8.4-8.4
					c4.5,0,7.9,3.2,8.6,7.5c0.3,1.4,0.4,4.3,0.4,5.9S826.4,451.4,826.1,452.8z M812.8,441.9c0,2.9,2,5,4.8,5s5-1.9,5-5
					c0-2.7-2.1-5-5-5C814.7,436.9,812.8,439,812.8,441.9z"/>
			</g>
		</g>
	</g>
	<g id="XMLID_985_">
		
			<linearGradient id="XMLID_35_" gradientUnits="userSpaceOnUse" x1="1370.1213" y1="514.8226" x2="854.0487" y2="225.7612" gradientTransform="matrix(1 0 0 -1 0 790.8)">
			<stop  offset="0" style="stop-color:#FF00FF"/>
			<stop  offset="0.2808" style="stop-color:#FF00B6"/>
			<stop  offset="1" style="stop-color:#FF0000"/>
		</linearGradient>
		<rect id="XMLID_989_" x="957.2" y="455.8" class="st27" width="100.2" height="46.8"/>
		
			<linearGradient id="XMLID_36_" gradientUnits="userSpaceOnUse" x1="1359.7021" y1="533.4244" x2="843.6295" y2="244.3631" gradientTransform="matrix(1 0 0 -1 0 790.8)">
			<stop  offset="0" style="stop-color:#FF00FF"/>
			<stop  offset="0.2808" style="stop-color:#FF00B6"/>
			<stop  offset="1" style="stop-color:#FF0000"/>
		</linearGradient>
		<rect id="XMLID_988_" x="941.6" y="440.1" class="st28" width="100.2" height="46.8"/>
		
			<linearGradient id="XMLID_37_" gradientUnits="userSpaceOnUse" x1="1348.7935" y1="552.9001" x2="832.7207" y2="263.8389" gradientTransform="matrix(1 0 0 -1 0 790.8)">
			<stop  offset="0" style="stop-color:#FF00FF"/>
			<stop  offset="0.2808" style="stop-color:#FF00B6"/>
			<stop  offset="1" style="stop-color:#FF0000"/>
		</linearGradient>
		<rect id="XMLID_987_" x="925.2" y="423.7" class="st29" width="100.2" height="46.8"/>
		<g id="XMLID_14_">
			<g id="XMLID_135_">
				<path id="XMLID_139_" d="M945.6,433.2h3.6l0.4,0.4v22.2h5.7l0.4,0.4v2.9l-0.4,0.4h-15.4l-0.4-0.4v-2.9l0.4-0.4h6.1v-17.5
					l-2.5,3.9l-0.4,0.4h-3.6v-0.7L945.6,433.2z"/>
				<path id="XMLID_136_" d="M960.1,440c0.5-4.6,2.5-7.2,7.9-7.2s7.4,2.5,7.9,7.2c0.2,1.8,0.2,4.1,0.2,6.3s0,4.5-0.2,6.3
					c-0.5,4.7-2.5,7.2-7.9,7.2s-7.4-2.5-7.9-7.2c-0.2-1.8-0.2-4.1-0.2-6.3S959.9,441.8,960.1,440z M972.4,440
					c-0.2-2.7-1.3-3.8-4.4-3.8c-3,0-4.2,1.1-4.4,3.8c-0.1,2.1-0.2,4.1-0.2,6.3s0,4.1,0.2,6.3c0.2,2.7,1.3,3.8,4.4,3.8
					c3,0,4.2-1.1,4.4-3.8c0.1-2.1,0.2-4.1,0.2-6.3S972.5,442.1,972.4,440z"/>
			</g>
		</g>
	</g>
	<g id="XMLID_980_">
		
			<linearGradient id="XMLID_38_" gradientUnits="userSpaceOnUse" x1="1406.0623" y1="450.6559" x2="889.9895" y2="161.5947" gradientTransform="matrix(1 0 0 -1 0 790.8)">
			<stop  offset="0" style="stop-color:#FF00FF"/>
			<stop  offset="0.2808" style="stop-color:#FF00B6"/>
			<stop  offset="1" style="stop-color:#FF0000"/>
		</linearGradient>
		<rect id="XMLID_984_" x="1107.7" y="455.8" class="st30" width="100.2" height="46.8"/>
		
			<linearGradient id="XMLID_39_" gradientUnits="userSpaceOnUse" x1="1395.6429" y1="469.2578" x2="879.5702" y2="180.1966" gradientTransform="matrix(1 0 0 -1 0 790.8)">
			<stop  offset="0" style="stop-color:#FF00FF"/>
			<stop  offset="0.2808" style="stop-color:#FF00B6"/>
			<stop  offset="1" style="stop-color:#FF0000"/>
		</linearGradient>
		<rect id="XMLID_983_" x="1092.1" y="440.1" class="st31" width="100.2" height="46.8"/>
		
			<linearGradient id="XMLID_41_" gradientUnits="userSpaceOnUse" x1="1384.7343" y1="488.7336" x2="868.6615" y2="199.6723" gradientTransform="matrix(1 0 0 -1 0 790.8)">
			<stop  offset="0" style="stop-color:#FF00FF"/>
			<stop  offset="0.2808" style="stop-color:#FF00B6"/>
			<stop  offset="1" style="stop-color:#FF0000"/>
		</linearGradient>
		<rect id="XMLID_982_" x="1075.7" y="423.7" class="st32" width="100.2" height="46.8"/>
		<g id="XMLID_9_">
			<g id="XMLID_122_">
				<path id="XMLID_125_" d="M1094.3,433.2h3.6l0.4,0.4v22.2h5.7l0.4,0.4v2.9l-0.4,0.4h-15.4l-0.4-0.4v-2.9l0.4-0.4h6.1v-17.5
					l-2.5,3.9l-0.4,0.4h-3.6v-0.7L1094.3,433.2z"/>
				<path id="XMLID_123_" d="M1114.7,433.2h3.6l0.4,0.4v22.2h5.7l0.4,0.4v2.9l-0.4,0.4H1109l-0.4-0.4v-2.9l0.4-0.4h6.1v-17.5
					l-2.5,3.9l-0.4,0.4h-3.6v-0.7L1114.7,433.2z"/>
			</g>
		</g>
	</g>
	<g id="XMLID_3_">
		
			<linearGradient id="XMLID_42_" gradientUnits="userSpaceOnUse" x1="1442.889" y1="387.3217" x2="926.8163" y2="98.2605" gradientTransform="matrix(1 0 0 -1 0 790.8)">
			<stop  offset="0" style="stop-color:#FF00FF"/>
			<stop  offset="0.2808" style="stop-color:#FF00B6"/>
			<stop  offset="1" style="stop-color:#FF0000"/>
		</linearGradient>
		<rect id="XMLID_1033_" x="1257.6" y="455.8" class="st33" width="100.2" height="46.8"/>
		
			<linearGradient id="XMLID_43_" gradientUnits="userSpaceOnUse" x1="1432.4697" y1="405.9235" x2="916.3971" y2="116.8624" gradientTransform="matrix(1 0 0 -1 0 790.8)">
			<stop  offset="0" style="stop-color:#FF00FF"/>
			<stop  offset="0.2808" style="stop-color:#FF00B6"/>
			<stop  offset="1" style="stop-color:#FF0000"/>
		</linearGradient>
		<rect id="XMLID_1032_" x="1242" y="440.1" class="st34" width="100.2" height="46.8"/>
		
			<linearGradient id="XMLID_44_" gradientUnits="userSpaceOnUse" x1="1421.561" y1="425.3994" x2="905.4883" y2="136.338" gradientTransform="matrix(1 0 0 -1 0 790.8)">
			<stop  offset="0" style="stop-color:#FF00FF"/>
			<stop  offset="0.2808" style="stop-color:#FF00B6"/>
			<stop  offset="1" style="stop-color:#FF0000"/>
		</linearGradient>
		<rect id="XMLID_1031_" x="1225.6" y="423.7" class="st35" width="100.2" height="46.8"/>
		<g id="XMLID_978_">
			<g id="XMLID_4_">
				<g id="XMLID_116_">
					<path id="XMLID_119_" d="M1244.3,433.4h3.6l0.4,0.4V456h5.7l0.4,0.4v2.9l-0.4,0.4h-15.4l-0.4-0.4v-2.9l0.4-0.4h6.1v-17.6
						l-2.5,3.9l-0.4,0.4h-3.6V442L1244.3,433.4z"/>
					<path id="XMLID_117_" d="M1259,440.9c0-4.7,3.4-7.9,7.9-7.9c4.3,0,8.1,3,8.1,7.9c0,3-1.8,5.4-3.4,6.8c-4.5,4.1-8.5,6.3-8.6,8.2
						h11.5l0.3,0.4v2.9l-0.3,0.4H1259l-0.4-0.4v-1.4c0-4.8,6.1-8.1,10.4-12.2c1.3-1.2,2.3-2.5,2.3-4.7c0-2.9-2.1-4.4-4.5-4.4
						s-4.3,1.6-4.3,4.4v0.7l-0.4,0.4h-2.9l-0.4-0.4v-0.7H1259z"/>
				</g>
			</g>
		</g>
	</g>
</g>
</svg>
