<svg xmlns="http://www.w3.org/2000/svg" width="3200" height="831.938" viewBox="0 0 3200 831.938">
  <defs>
    <style>
      .cls-1 {
        fill: #fff;
        fill-rule: evenodd;
      }
    </style>
  </defs>
  <path class="cls-1" d="M1241.1,458.906c-23.26-89.22-76.12-154.011-162.8-186.937-60.26-23.367-121.575-25.492-183.946-11.684q-76.115,17.526-133.2,70.1c-47.572,43.548-77.172,98.779-88.8,162.508-8.457,47.8-6.343,95.593,8.458,142.327,28.542,88.158,86.685,147.638,172.314,179.5,69.772,26.554,141.658,29.74,213.545,12.746,62.37-13.808,114.17-44.61,157.51-92.407,1.06-1.062,1.06-2.124,2.12-3.186-20.09-21.243-40.17-41.424-60.26-62.667a14.729,14.729,0,0,0-4.23,3.187c-41.23,33.988-87.74,57.356-141.66,64.791-45.453,6.372-89.853,2.124-133.2-14.87-62.372-25.492-101.486-71.164-111-139.141-1.058-9.559-1.058-19.119-2.115-28.678H1250.61v-6.373A320.561,320.561,0,0,0,1241.1,458.906ZM784.411,470.59c6.343-11.684,10.571-23.367,16.914-33.989,30.657-52.045,78.229-78.6,136.372-87.1a229.075,229.075,0,0,1,93.033,6.373c47.57,13.808,80.34,44.61,100.42,90.282,3.18,7.435,5.29,13.808,8.46,21.243a3.908,3.908,0,0,0,1.06,3.187H784.411ZM2560.42,458.906c-23.26-89.22-76.12-154.011-162.81-186.937-60.25-23.367-121.57-25.492-183.94-11.684q-76.11,17.526-133.2,70.1c-47.57,43.548-77.17,98.779-88.8,162.508-8.46,47.8-6.34,95.593,8.46,143.389,28.54,88.158,86.68,147.638,172.31,179.5,69.77,26.554,141.66,29.74,213.55,12.746,62.37-13.808,114.17-44.61,157.51-92.407,1.06-1.062,1.06-2.124,2.12-3.186-20.09-21.243-40.18-41.424-60.26-62.666a14.57,14.57,0,0,0-4.23,3.186c-41.23,33.989-87.74,57.356-141.66,64.791-45.46,6.373-89.86,2.124-133.2-14.87-62.37-25.492-101.48-71.164-111-139.141-1.06-9.559-1.06-19.119-2.11-28.678h476.77v-6.373A323.849,323.849,0,0,0,2560.42,458.906ZM2103.73,470.59c6.34-11.684,10.57-23.367,16.91-33.989,30.66-52.045,78.23-78.6,136.37-87.1a229.041,229.041,0,0,1,93.03,6.373c47.57,13.808,80.35,44.61,100.43,90.282,3.17,7.435,5.29,13.808,8.46,21.243a3.908,3.908,0,0,0,1.06,3.187H2103.73ZM1795.04,825.345h107.83V14.93H1795.04V825.345ZM545.5,741.436c-17.972,3.187-35.943,2.124-53.915-5.311-21.142-9.559-38.057-24.429-51.8-42.485-24.314-31.865-39.114-66.915-50.743-105.152a309.284,309.284,0,0,1-12.685-63.729c8.457-2.124,17.971-4.249,26.428-7.435C468.324,496.081,514.839,453.6,540.21,390.929c21.143-50.983,24.315-104.09,14.8-158.259a251.915,251.915,0,0,0-47.571-107.277C485.239,96.715,456.7,74.41,423.924,60.6,392.21,46.795,352.038,41.484,322.438,41.484H0.009V826.408h111V530.07H270.638c0,3.186,1.057,5.31,1.057,7.435a513.839,513.839,0,0,0,37,142.327c16.915,39.3,39.115,75.412,70.829,105.152,30.657,28.678,65.543,45.672,106.772,52.045,35.943,5.311,70.828,2.124,104.657-10.621,24.314-9.56,46.515-23.368,65.543-42.486C643.81,758.43,631.125,734,617.382,707.448,596.239,726.566,572.982,737.188,545.5,741.436ZM341.467,434.477c-12.686,3.186-26.429,4.248-39.115,4.248H112.066v-305.9H301.3c28.543,0,56.029,5.311,80.343,21.243,29.6,18.056,47.572,45.672,57.086,78.6C451.41,279.4,449.3,325.076,427.1,369.686,408.067,403.675,379.524,425.98,341.467,434.477ZM1505.38,147.7c6.35-20.181,19.03-36.113,40.18-44.61,23.25-8.5,46.51-6.373,68.71,4.249,15.86,7.435,24.31,20.18,25.37,37.175h97.26a132.7,132.7,0,0,0-3.17-28.678c-10.57-53.107-44.4-86.034-94.09-101.966C1597.36,0.06,1554.01.06,1511.73,10.682c-37,8.5-66.6,28.678-88.8,59.48-22.2,32.926-32.77,69.039-35.95,108.338-2.11,26.554-2.11,53.107-2.11,79.661v6.373h-87.74v84.971h87.74v475.84h112.06V349.505h145.88V264.534H1497.98c0-25.492-1.05-49.921,0-74.35C1497.98,176.376,1501.16,161.506,1505.38,147.7ZM3123.87,250.726c-71.88,72.226-143.77,144.452-216.71,217.739-71.89-72.225-143.77-144.451-216.72-217.739L2614.33,327.2c71.89,72.226,143.77,144.452,216.71,217.74-71.88,72.225-143.77,144.451-216.71,217.739l76.11,76.474c71.89-72.225,143.78-144.451,216.72-217.739,71.88,72.226,144.83,145.514,216.71,217.739q38.07-38.236,76.12-76.474c-71.89-72.226-143.77-144.451-216.72-217.739,71.89-72.226,143.78-144.452,216.72-217.74C3173.56,301.709,3149.25,276.217,3123.87,250.726Z" transform="translate(0 -3.063)"/>
</svg>
