<?xml version="1.0" encoding="utf-8"?>
<!-- Generator: Adobe Illustrator 19.0.0, SVG Export Plug-In . SVG Version: 6.00 Build 0)  -->
<svg version="1.1" id="Layer_1" xmlns="http://www.w3.org/2000/svg" xmlns:xlink="http://www.w3.org/1999/xlink" x="0px" y="0px"
	 viewBox="294 -4 800 800" style="enable-background:new 294 -4 800 800;" xml:space="preserve">
<style type="text/css">
	.st0{fill:#FFFFFF;}
</style>
<g id="XMLID_1918_">
	<path id="XMLID_1921_" class="st0" d="M856.4,517.7c-9.7,8.8-20.5,14-33.1,15.9c-9.2,1.3-17.2,0.5-24.3-2.5
		c-8.9-3.8-16.5-10.1-24-19.8c-10.3-13.4-18.2-29.8-24.1-50c-2.7-9.4-4.6-18.3-5.5-27.1l1.4-0.4c3-0.8,5.9-1.5,8.8-2.4
		c32.9-10.4,56.3-31.8,69.5-63.6c10.1-24.2,12.5-50.7,7.2-78.7c-3.8-20.2-11.8-38.3-23.9-53.7c-11.2-14.4-25.5-25.4-42.3-32.7
		c-15.1-6.6-31.7-9.8-50.8-9.8c-51.7,0-158.1,0-158.1,0h-3.5v388.7h61.4V437.1h71.4c0,0.2,0.1,0.4,0.1,0.6
		c2.6,24.3,8.8,47.9,18.4,70c9.5,22,21.1,39.1,35.5,52.5c15.5,14.4,33.6,23.2,53.9,26.2c5.6,0.8,11.1,1.2,16.5,1.2
		c12.4,0,24.5-2.1,36.2-6.4c12.8-4.7,24-12,33.2-21.5l1.7-1.8l-22.3-43.2L856.4,517.7z M762.2,354.2c-8.1,15.8-21.3,25.8-39.1,29.9
		c-6,1.4-12.2,2.1-18.4,2.2c-30.7,0-76.7,0.1-89.6,0.1v-142h29.2h59.8c14.6,0,26.8,3.2,37.3,9.9c13.1,8.3,21.9,20.4,26.2,36.1
		C774,313.5,772.2,335,762.2,354.2z"/>
	<path id="XMLID_1924_" class="st0" d="M694-4C473.4-4,294,175.4,294,396s179.4,400,400,400s400-179.4,400-400S914.6-4,694-4z
		 M1031.5,396c0,186.1-151.4,337.6-337.5,337.6S356.4,582.2,356.4,396c0-186.1,151.4-337.5,337.6-337.5
		C880.1,58.5,1031.5,209.9,1031.5,396z"/>
</g>
</svg>
